<svg width="26" height="26" viewBox="0 0 26 26" fill="none" xmlns="http://www.w3.org/2000/svg">
<g id="image">
<g id="Group">
<path id="Vector" d="M13.2338 7.21896C14.1006 7.21896 15.1873 6.61468 15.8343 5.80932C16.4198 5.08002 16.847 4.06003 16.847 3.04109C16.847 2.90252 16.8355 2.76395 16.8105 2.65039C15.8458 2.68894 14.6862 3.31718 13.9902 4.16109C13.4411 4.80288 12.94 5.80932 12.94 6.84181C12.94 6.99184 12.965 7.14395 12.9775 7.19396C13.0379 7.20646 13.1359 7.21896 13.2338 7.21896ZM10.1812 22.4458C11.3658 22.4458 11.8898 21.6279 13.3682 21.6279C14.8695 21.6279 15.1988 22.4208 16.5178 22.4208C17.8118 22.4208 18.6786 21.1872 19.4975 19.9797C20.4123 18.5951 20.7915 17.2365 20.8155 17.1729C20.73 17.1479 18.2525 16.104 18.2525 13.1722C18.2525 10.63 20.2049 9.48397 20.3154 9.39646C19.0203 7.4836 17.0543 7.43255 16.5178 7.43255C15.0644 7.43255 13.8808 8.33897 13.1359 8.33897C12.3295 8.33897 11.2678 7.4836 10.0103 7.4836C7.61713 7.4836 5.1875 9.52148 5.1875 13.3722C5.1875 15.7633 6.0908 18.2929 7.20246 19.9297C8.15473 21.3133 8.98405 22.4458 10.1812 22.4458Z" fill="#191919"/>
</g>
</g>
</svg>
