<svg width="current" height="current" viewBox="0 0 40 40" fill="none" xmlns="http://www.w3.org/2000/svg">
<g id="image" clip-path="url(#clip0_214_8197)">
<g id="Group">
<path id="Vector" fill-rule="evenodd" clip-rule="evenodd" d="M20 0C31.046 0 40 8.954 40 20C40 31.046 31.046 40 20 40C8.954 40 0 31.046 0 20C0 8.954 8.954 0 20 0Z" fill="#191919"/>
<path id="Vector_2" d="M20.223 12.6116C21.055 12.6116 22.098 12.0316 22.719 11.2586C23.281 10.5586 23.691 9.57956 23.691 8.60156C23.691 8.46856 23.68 8.33556 23.656 8.22656C22.73 8.26356 21.617 8.86656 20.949 9.67656C20.422 10.2926 19.941 11.2586 19.941 12.2496C19.941 12.3936 19.965 12.5396 19.977 12.5876C20.035 12.5996 20.129 12.6116 20.223 12.6116ZM17.293 27.2266C18.43 27.2266 18.933 26.4416 20.352 26.4416C21.793 26.4416 22.109 27.2026 23.375 27.2026C24.617 27.2026 25.449 26.0186 26.235 24.8596C27.113 23.5306 27.477 22.2266 27.5 22.1656C27.418 22.1416 25.04 21.1396 25.04 18.3256C25.04 15.8856 26.914 14.7856 27.02 14.7016C25.777 12.8656 23.89 12.8166 23.375 12.8166C21.98 12.8166 20.844 13.6866 20.129 13.6866C19.355 13.6866 18.336 12.8656 17.129 12.8656C14.832 12.8656 12.5 14.8216 12.5 18.5176C12.5 20.8126 13.367 23.2406 14.434 24.8116C15.348 26.1396 16.144 27.2266 17.293 27.2266Z" fill="white"/>
</g>
</g>
<defs>
<clipPath id="clip0_214_8197">
<rect width="40" height="40" fill="white"/>
</clipPath>
</defs>
</svg>
