<svg width="101" height="22" viewBox="0 0 101 22" fill="none" xmlns="http://www.w3.org/2000/svg">
<g id="Frame">
<path id="Vector" d="M29.4844 17L30.4219 14.2031H34.6797L35.625 17H37.7969L33.7969 5.6875H31.2969L27.3125 17H29.4844ZM30.9688 12.5625L32.5 8H32.5938L34.1328 12.5625H30.9688ZM39.0469 20.1875H41.0469V15.6562H41.125C41.4375 16.2812 42.1016 17.1484 43.5625 17.1562C45.5625 17.1484 47.0547 15.5547 47.0625 12.7656C47.0547 9.9375 45.5156 8.40625 43.5625 8.40625C42.0547 8.40625 41.4297 9.30469 41.125 9.90625H41V8.51562H39.0469V20.1875ZM41 12.75C41.0078 11.1016 41.7109 10.0391 43.0156 10.0312C44.3516 10.0391 45.0312 11.1719 45.0312 12.75C45.0312 14.3516 44.3359 15.5156 43.0156 15.5156C41.7266 15.5156 41.0078 14.4062 41 12.75ZM48.625 20.1875H50.625V15.6562H50.7031C51.0156 16.2812 51.6797 17.1484 53.1406 17.1562C55.1406 17.1484 56.6328 15.5547 56.6406 12.7656C56.6328 9.9375 55.0938 8.40625 53.1406 8.40625C51.6328 8.40625 51.0078 9.30469 50.7031 9.90625H50.5781V8.51562H48.625V20.1875ZM50.5781 12.75C50.5859 11.1016 51.2891 10.0391 52.5938 10.0312C53.9297 10.0391 54.6094 11.1719 54.6094 12.75C54.6094 14.3516 53.9141 15.5156 52.5938 15.5156C51.3047 15.5156 50.5859 14.4062 50.5781 12.75ZM68.25 8.79688H70.2031C70.1719 6.88281 68.5391 5.53125 66.1406 5.53125C63.7578 5.53125 61.9844 6.85938 61.9844 8.85938C61.9844 10.4844 63.1406 11.4219 65 11.9062L66.2812 12.2344C67.5078 12.5469 68.3203 12.9219 68.3281 13.8125C68.3203 14.7812 67.3984 15.4297 66.0625 15.4375C64.7734 15.4297 63.7812 14.8516 63.6875 13.6719H61.6875C61.7734 15.9062 63.4453 17.1719 66.0781 17.1719C68.7891 17.1719 70.3594 15.8125 70.3594 13.8281C70.3594 11.8594 68.7344 10.9688 67.0469 10.5781L65.9844 10.2969C65.0469 10.0781 64.0391 9.6875 64.0469 8.73438C64.0547 7.88281 64.8203 7.25781 66.1094 7.26562C67.3281 7.25781 68.1484 7.82031 68.25 8.79688ZM76.1875 8.51562H74.5156V6.48438H72.5312V8.51562H71.3125V10.0469H72.5312V14.7812C72.5156 16.375 73.6719 17.1172 75.1719 17.1094C75.6797 17.1172 76.0625 17.0703 76.2969 17.0312V15.4062C76.0469 15.4219 75.6562 15.4453 75.4219 15.4375C74.9219 15.4297 74.5156 15.2656 74.5156 14.4531V10.0469H76.1875V8.51562ZM81.3281 17.1719C83.8125 17.1719 85.3984 15.4141 85.3906 12.7969C85.3984 10.1562 83.8125 8.40625 81.3281 8.40625C78.8516 8.40625 77.2656 10.1562 77.2656 12.7969C77.2656 15.4141 78.8516 17.1719 81.3281 17.1719ZM79.2812 12.7812C79.2812 11.2266 79.9609 9.97656 81.3438 9.98438C82.7031 9.97656 83.3828 11.2266 83.375 12.7812C83.3828 14.3359 82.7031 15.5781 81.3438 15.5781C79.9609 15.5781 79.2812 14.3359 79.2812 12.7812ZM86.9375 17H88.9375V12C88.9375 10.9297 89.75 10.1641 90.8594 10.1562C91.1875 10.1641 91.6016 10.2188 91.7812 10.2812V8.4375C91.5938 8.41406 91.2812 8.39062 91.0625 8.39062C90.0859 8.39062 89.2734 8.94531 88.9688 9.92188H88.875V8.51562H86.9375V17ZM96.4531 17.1719C98.4219 17.1719 99.7812 16.2031 100.141 14.7344H98.1875C97.9297 15.2422 97.3438 15.6172 96.4688 15.6094C95.1797 15.6172 94.3281 14.7578 94.2969 13.3125H100.219V12.6875C100.219 9.71094 98.4219 8.40625 96.3438 8.40625C93.9219 8.40625 92.3281 10.1875 92.3281 12.8125C92.3281 15.4688 93.8984 17.1719 96.4531 17.1719ZM94.3047 11.9531C94.375 10.875 95.1797 9.95312 96.375 9.95312C97.5234 9.95312 98.3047 10.7969 98.3125 11.9531H94.3047Z" fill="#191919"/>
<path id="Vector_2" d="M14.1988 11.1676C14.2091 10.3627 14.4219 9.57346 14.8172 8.87338C15.2126 8.1733 15.7777 7.5851 16.4601 7.16351C16.0266 6.54134 15.4548 6.02932 14.79 5.66812C14.1252 5.30691 13.3857 5.10648 12.6303 5.08272C11.019 4.91275 9.45691 6.05174 8.63581 6.05174C7.79882 6.05174 6.53461 5.0996 5.17326 5.12775C4.2927 5.15634 3.43453 5.41368 2.68235 5.8747C1.93018 6.33573 1.30966 6.9847 0.881248 7.7584C-0.974531 10.9875 0.409713 15.7331 2.18739 18.3433C3.0768 19.6214 4.11627 21.0491 5.47639 20.9985C6.80735 20.943 7.30444 20.1455 8.91102 20.1455C10.5027 20.1455 10.9691 20.9985 12.3568 20.9663C13.785 20.943 14.6848 19.6825 15.543 18.3923C16.182 17.4816 16.6738 16.475 17 15.41C16.1703 15.0573 15.4622 14.4669 14.9641 13.7125C14.4659 12.9581 14.1998 12.073 14.1988 11.1676Z" fill="#191919"/>
<path id="Vector_3" d="M11.5801 3.36621C12.3588 2.42673 12.7425 1.21918 12.6496 0C11.4599 0.125579 10.3609 0.69702 9.57169 1.60046C9.18581 2.04182 8.89027 2.55528 8.70197 3.11149C8.51366 3.6677 8.43627 4.25576 8.47424 4.84205C9.0693 4.84821 9.65799 4.71859 10.196 4.46295C10.734 4.20731 11.2072 3.83232 11.5801 3.36621Z" fill="#191919"/>
</g>
</svg>
