<svg width="26" height="26" viewBox="0 0 26 26" fill="none" xmlns="http://www.w3.org/2000/svg">
<g id="image">
<path id="Vector" d="M13.1845 7.551C14.9095 7.551 16.0725 8.296 16.7355 8.918L19.3275 6.388C17.7355 4.908 15.6645 4 13.1845 4C11.4821 3.99966 9.81328 4.47283 8.36447 5.3666C6.91565 6.26037 5.74398 7.53951 4.98047 9.061L7.95047 11.367C8.69447 9.153 10.7565 7.551 13.1845 7.551Z" fill="#EA4335"/>
<path id="Vector_2" d="M21.9996 13.3878C21.9996 12.6328 21.9396 12.0818 21.8066 11.5098H13.1836V14.9188H18.2446C18.1426 15.7658 17.5916 17.0408 16.3676 17.8988L19.2656 20.1428C20.9996 18.5408 21.9996 16.1838 21.9996 13.3878Z" fill="#4285F4"/>
<path id="Vector_3" d="M7.96 14.9996C7.75908 14.4151 7.65537 13.8016 7.653 13.1836C7.653 12.5506 7.765 11.9386 7.949 11.3676L4.98 9.05957C4.33651 10.3391 4.00092 11.7513 4 13.1836C4 14.6636 4.357 16.0606 4.98 17.3056L7.96 14.9996Z" fill="#FBBC05"/>
<path id="Vector_4" d="M13.1833 22.368C15.6633 22.368 17.7433 21.552 19.2643 20.143L16.3663 17.898C15.5913 18.439 14.5503 18.817 13.1823 18.817C10.7543 18.817 8.69228 17.215 7.95828 15L4.98828 17.306C6.49828 20.306 9.59128 22.368 13.1833 22.368Z" fill="#34A853"/>
</g>
</svg>
