<svg width="current" height="current" viewBox="0 0 40 40" fill="none" xmlns="http://www.w3.org/2000/svg">
<g id="image" clip-path="url(#clip0_214_8188)">
<g id="Group">
<path id="Vector" d="M20.0007 39.0474C30.5205 39.0474 39.0484 30.5195 39.0484 19.9998C39.0484 9.48006 30.5205 0.952148 20.0007 0.952148C9.48103 0.952148 0.953125 9.48006 0.953125 19.9998C0.953125 30.5195 9.48103 39.0474 20.0007 39.0474Z" fill="white" stroke="#E2E2E2" stroke-width="0.952381"/>
<g id="Group_2">
<path id="Vector_2" d="M19.9188 14.659C21.5292 14.659 22.6159 15.3542 23.235 15.9352L25.655 13.5732C24.1692 12.1904 22.234 11.3428 19.9188 11.3428C18.3292 11.3426 16.7709 11.7845 15.418 12.6191C14.0652 13.4536 12.971 14.6479 12.2578 16.0685L15.0311 18.2218C15.7264 16.1552 17.6511 14.659 19.9188 14.659Z" fill="#EA4335"/>
<path id="Vector_3" d="M28.1523 20.1078C28.1523 19.4031 28.0952 18.8888 27.9714 18.3555H19.9199V21.5374H24.6466C24.5514 22.3278 24.0371 23.5193 22.8933 24.3202L25.599 26.4155C27.219 24.9202 28.1523 22.7193 28.1523 20.1078Z" fill="#4285F4"/>
<path id="Vector_4" d="M15.0409 21.6141C14.8536 21.0684 14.7571 20.4958 14.7552 19.9189C14.7552 19.3274 14.8599 18.756 15.0314 18.2217L12.258 16.0693C11.6576 17.2631 11.3445 18.5807 11.3438 19.917C11.3437 21.2989 11.6771 22.6046 12.258 23.7665L15.0409 21.6141Z" fill="#FBBC05"/>
<path id="Vector_5" d="M19.919 28.4943C22.2342 28.4943 24.1781 27.7324 25.5981 26.4171L22.8923 24.3209C22.1685 24.8257 21.1961 25.1781 19.919 25.1781C17.6523 25.1781 15.7266 23.6828 15.0409 21.6143L12.2676 23.7676C13.6781 26.5695 16.5657 28.4943 19.919 28.4943Z" fill="#34A853"/>
</g>
</g>
</g>
<defs>
<clipPath id="clip0_214_8188">
<rect width="40" height="40" fill="white"/>
</clipPath>
</defs>
</svg>
