<svg width="202" height="20" viewBox="0 0 202 20" fill="none" xmlns="http://www.w3.org/2000/svg">
<path d="M16.9815 0H3C1.34315 0 0 1.34315 0 3V17C0 18.6569 1.34315 20 3 20H16.9815C18.6384 20 19.9815 18.6569 19.9815 17V3C19.9815 1.34315 18.6384 0 16.9815 0Z" fill="#191919"/>
<path d="M8.41602 12.5312V14.8925C8.41602 15.1478 8.62874 15.3605 8.884 15.3605H8.90528H11.075C11.3303 15.3605 11.543 15.1478 11.543 14.8925V12.5312H8.41602Z" fill="white"/>
<path d="M11.0963 4.63965H8.884C8.62874 4.63965 8.41602 4.85236 8.41602 5.10763V11.8934H11.5643V5.10763C11.5643 4.85236 11.3516 4.63965 11.0963 4.63965Z" fill="white"/>
<path d="M40.7232 7.6121C40.7232 8.59514 40.4958 9.49014 40.041 10.2971C39.5862 11.0894 38.9112 11.7203 38.0162 12.1898C37.1359 12.6593 36.0648 12.8941 34.803 12.8941H32.8663V17.8459H27.9805V2.2641H34.803C36.7104 2.2641 38.1703 2.74828 39.1827 3.71664C40.2097 4.68501 40.7232 5.98349 40.7232 7.6121ZM34.2528 9.04264C35.2652 9.04264 35.7714 8.56579 35.7714 7.6121C35.7714 6.65841 35.2652 6.18157 34.2528 6.18157H32.8663V9.04264H34.2528Z" fill="#191919"/>
<path d="M47.0267 14.1486H51.7365V17.8459H42.1409V2.2641H47.0267V14.1486Z" fill="#191919"/>
<path d="M58.0277 2.2641V17.8459H53.1419V2.2641H58.0277Z" fill="#191919"/>
<path d="M75.046 17.8459H70.1601L64.9882 10.011V17.8459H60.1024V2.2641H64.9882L70.1601 10.2311V2.2641H75.046V17.8459Z" fill="#191919"/>
<path d="M86.6729 7.5901C86.4821 7.28198 86.2107 7.04723 85.8586 6.88583C85.5064 6.70976 85.0809 6.62173 84.5821 6.62173C83.6431 6.62173 82.9168 6.92985 82.4033 7.54608C81.8897 8.14764 81.633 8.97662 81.633 10.033C81.633 11.2508 81.9191 12.1605 82.4913 12.762C83.0635 13.3636 83.9438 13.6644 85.1323 13.6644C86.262 13.6644 87.1717 13.2095 87.8613 12.2999H83.9658V8.84457H91.9108V13.7304C91.2359 14.8895 90.3042 15.8872 89.1158 16.7235C87.9273 17.5452 86.4234 17.956 84.6041 17.956C82.9901 17.956 81.5816 17.6259 80.3785 16.9656C79.1901 16.2907 78.273 15.3517 77.6275 14.1486C76.9966 12.9454 76.6811 11.5736 76.6811 10.033C76.6811 8.49243 76.9966 7.12059 77.6275 5.91747C78.273 4.71435 79.1901 3.78267 80.3785 3.12242C81.5669 2.4475 82.9608 2.11004 84.5601 2.11004C86.5995 2.11004 88.2575 2.60156 89.5339 3.58459C90.8251 4.56763 91.588 5.9028 91.8228 7.5901H86.6729Z" fill="#191919"/>
<path d="M96.7059 10.033C96.7059 8.49243 97.014 7.12059 97.6302 5.91747C98.2611 4.71435 99.1561 3.78267 100.315 3.12242C101.474 2.4475 102.839 2.11004 104.409 2.11004C105.759 2.11004 106.962 2.3668 108.018 2.88033C109.089 3.37918 109.955 4.09078 110.615 5.01513C111.29 5.93948 111.738 7.01788 111.958 8.25034H106.808C106.573 7.73682 106.235 7.34067 105.795 7.0619C105.37 6.76845 104.878 6.62173 104.321 6.62173C103.499 6.62173 102.846 6.92985 102.362 7.54608C101.892 8.16231 101.658 8.99129 101.658 10.033C101.658 11.0747 101.892 11.9037 102.362 12.5199C102.846 13.1362 103.499 13.4443 104.321 13.4443C104.878 13.4443 105.37 13.3049 105.795 13.0261C106.235 12.7327 106.573 12.3292 106.808 11.8157H111.958C111.738 13.0481 111.29 14.1265 110.615 15.0509C109.955 15.9752 109.089 16.6942 108.018 17.2077C106.962 17.7066 105.759 17.956 104.409 17.956C102.839 17.956 101.474 17.6259 100.315 16.9656C99.1561 16.2907 98.2611 15.3517 97.6302 14.1486C97.014 12.9454 96.7059 11.5736 96.7059 10.033Z" fill="#191919"/>
<path d="M121.42 17.8459L118.492 12.2558H118.47V17.8459H113.585V2.2641H120.847C122.109 2.2641 123.188 2.49152 124.083 2.94636C124.978 3.38652 125.645 3.99541 126.085 4.77304C126.54 5.53599 126.768 6.40165 126.768 7.37001C126.768 8.41174 126.474 9.33608 125.887 10.1431C125.315 10.95 124.486 11.5296 123.4 11.8817L126.79 17.8459H121.42ZM118.47 8.99862H120.407C120.877 8.99862 121.229 8.89592 121.464 8.69051C121.698 8.47043 121.816 8.13297 121.816 7.67813C121.816 7.26731 121.691 6.94452 121.442 6.70976C121.207 6.47501 120.862 6.35763 120.407 6.35763H118.47V8.99862Z" fill="#191919"/>
<path d="M133.082 6.15956V8.07428H137.924V11.7497H133.082V13.9505H138.584V17.8459H128.196V2.2641H138.584V6.15956H133.082Z" fill="#191919"/>
<path d="M150.285 15.4911H145.091L144.321 17.8459H139.193L144.893 2.2641H150.527L156.206 17.8459H151.056L150.285 15.4911ZM149.097 11.8157L147.688 7.48005L146.28 11.8157H149.097Z" fill="#191919"/>
<path d="M169.42 2.2641V6.13755H165.283V17.8459H160.397V6.13755H156.303V2.2641H169.42Z" fill="#191919"/>
<path d="M178.206 18C176.739 18 175.389 17.6552 174.157 16.9656C172.939 16.276 171.97 15.3223 171.251 14.1045C170.532 12.8867 170.173 11.5149 170.173 9.98899C170.173 8.46309 170.532 7.09124 171.251 5.87345C171.97 4.65566 172.939 3.70931 174.157 3.03439C175.389 2.3448 176.739 2 178.206 2C179.673 2 181.016 2.3448 182.234 3.03439C183.451 3.70931 184.412 4.65566 185.117 5.87345C185.836 7.09124 186.195 8.46309 186.195 9.98899C186.195 11.5149 185.836 12.8867 185.117 14.1045C184.412 15.3223 183.444 16.276 182.212 16.9656C180.994 17.6552 179.659 18 178.206 18ZM178.206 13.4443C179.174 13.4443 179.923 13.1362 180.451 12.5199C180.979 11.889 181.243 11.0454 181.243 9.98899C181.243 8.91793 180.979 8.07428 180.451 7.45805C179.923 6.82714 179.174 6.51169 178.206 6.51169C177.223 6.51169 176.467 6.82714 175.939 7.45805C175.411 8.07428 175.147 8.91793 175.147 9.98899C175.147 11.0454 175.411 11.889 175.939 12.5199C176.467 13.1362 177.223 13.4443 178.206 13.4443Z" fill="#191919"/>
<path d="M195.66 17.8459L192.733 12.2558H192.711V17.8459H187.826V2.2641H195.088C196.35 2.2641 197.428 2.49152 198.323 2.94636C199.218 3.38652 199.886 3.99541 200.326 4.77304C200.781 5.53599 201.008 6.40165 201.008 7.37001C201.008 8.41174 200.715 9.33608 200.128 10.1431C199.556 10.95 198.727 11.5296 197.641 11.8817L201.03 17.8459H195.66ZM192.711 8.99862H194.648C195.118 8.99862 195.47 8.89592 195.704 8.69051C195.939 8.47043 196.057 8.13297 196.057 7.67813C196.057 7.26731 195.932 6.94452 195.682 6.70976C195.448 6.47501 195.103 6.35763 194.648 6.35763H192.711V8.99862Z" fill="#191919"/>
</svg>
