<svg width="current" height="current" viewBox="0 0 40 40" fill="none" xmlns="http://www.w3.org/2000/svg">
<g id="image" clip-path="url(#clip0_214_8183)">
<g id="Group">
<path id="Vector" d="M20 40C31.0457 40 40 31.0457 40 20C40 8.9543 31.0457 0 20 0C8.9543 0 0 8.9543 0 20C0 31.0457 8.9543 40 20 40Z" fill="#FFE600"/>
<path id="Vector_2" fill-rule="evenodd" clip-rule="evenodd" d="M15.7922 24.9952C15.0122 24.3902 14.2132 23.8892 13.5642 23.2472C11.0302 20.7422 11.2872 17.1942 14.1232 14.8272C17.4682 12.0362 23.4092 12.0262 26.7642 14.8062C29.9722 17.4632 29.8512 21.5682 26.4762 24.0302C24.3212 25.6022 21.8612 26.0742 19.2152 25.8402C19.0187 25.8243 18.822 25.8686 18.6512 25.9672C17.6282 26.6142 16.6232 27.2872 15.6042 27.9372C15.4712 28.0222 15.2892 28.0352 15.1302 28.0812C15.1152 27.9132 15.0532 27.7332 15.0922 27.5782C15.3212 26.6842 15.5722 25.7962 15.7922 24.9952Z" fill="#391B1B"/>
</g>
</g>
<defs>
<clipPath id="clip0_214_8183">
<rect width="40" height="40" fill="white"/>
</clipPath>
</defs>
</svg>
