<svg width="116" height="22" viewBox="0 0 116 22" fill="none" xmlns="http://www.w3.org/2000/svg">
<g id="Frame">
<path id="Vector" d="M36.625 9.29688H38.7031C38.3594 7.07812 36.4297 5.53125 33.9375 5.53125C30.9766 5.53125 28.7578 7.71094 28.7656 11.3438C28.7578 14.9297 30.875 17.1562 34 17.1562C36.7969 17.1562 38.7969 15.3516 38.7969 12.4375V11.0781H34.2031V12.6875H36.8281C36.7969 14.2969 35.7109 15.3281 34 15.3281C32.1094 15.3281 30.8047 13.8984 30.8125 11.3281C30.8047 8.78125 32.1328 7.35938 33.9531 7.35938C35.3281 7.35938 36.2578 8.09375 36.625 9.29688ZM44.25 17.1719C46.7344 17.1719 48.3203 15.4141 48.3125 12.7969C48.3203 10.1562 46.7344 8.40625 44.25 8.40625C41.7734 8.40625 40.1875 10.1562 40.1875 12.7969C40.1875 15.4141 41.7734 17.1719 44.25 17.1719ZM42.2031 12.7812C42.2031 11.2266 42.8828 9.97656 44.2656 9.98438C45.625 9.97656 46.3047 11.2266 46.2969 12.7812C46.3047 14.3359 45.625 15.5781 44.2656 15.5781C42.8828 15.5781 42.2031 14.3359 42.2031 12.7812ZM53.5625 17.1719C56.0469 17.1719 57.6328 15.4141 57.625 12.7969C57.6328 10.1562 56.0469 8.40625 53.5625 8.40625C51.0859 8.40625 49.5 10.1562 49.5 12.7969C49.5 15.4141 51.0859 17.1719 53.5625 17.1719ZM51.5156 12.7812C51.5156 11.2266 52.1953 9.97656 53.5781 9.98438C54.9375 9.97656 55.6172 11.2266 55.6094 12.7812C55.6172 14.3359 54.9375 15.5781 53.5781 15.5781C52.1953 15.5781 51.5156 14.3359 51.5156 12.7812ZM62.875 20.3594C65.1641 20.3594 66.8438 19.3125 66.8438 17.1406V8.51562H64.875V9.90625H64.7812C64.4688 9.30469 63.8359 8.40625 62.3438 8.40625C60.375 8.40625 58.8281 9.89844 58.8281 12.6875C58.8281 15.4531 60.3672 16.875 62.3281 16.875C63.7891 16.875 64.4688 16.0938 64.7812 15.4688H64.875V17.0938C64.875 18.3359 64.1016 18.8516 62.9062 18.8594C61.8828 18.8516 61.1875 18.5078 61.0469 17.7656H59.0625C59.1953 19.3594 60.625 20.3594 62.875 20.3594ZM60.8594 12.7188C60.8594 11.1719 61.5469 10.0391 62.875 10.0312C64.1719 10.0391 64.8906 11.1016 64.8906 12.7188C64.8906 14.3438 64.1641 15.3125 62.875 15.3125C61.5625 15.3125 60.8594 14.2812 60.8594 12.7188ZM70.75 5.6875H68.75V17H70.75V5.6875ZM76.4219 17.1719C78.3906 17.1719 79.75 16.2031 80.1094 14.7344H78.1562C77.8984 15.2422 77.3125 15.6172 76.4375 15.6094C75.1484 15.6172 74.2969 14.7578 74.2656 13.3125H80.1875V12.6875C80.1875 9.71094 78.3906 8.40625 76.3125 8.40625C73.8906 8.40625 72.2969 10.1875 72.2969 12.8125C72.2969 15.4688 73.8672 17.1719 76.4219 17.1719ZM74.2734 11.9531C74.3438 10.875 75.1484 9.95312 76.3438 9.95312C77.4922 9.95312 78.2734 10.7969 78.2812 11.9531H74.2734ZM85.625 17H87.6562V13.1719H89.8438C92.4531 13.1719 93.8516 11.6016 93.8594 9.4375C93.8516 7.26562 92.4688 5.6875 89.875 5.6875H85.625V17ZM87.6562 11.5V7.39062H89.5625C91.0938 7.39062 91.7812 8.22656 91.7812 9.4375C91.7812 10.6328 91.0938 11.4922 89.5625 11.5H87.6562ZM97.4062 5.6875H95.4062V17H97.4062V5.6875ZM98.9219 14.6094C98.9219 16.2891 100.148 17.1719 101.766 17.1719C103.102 17.1719 103.891 16.5469 104.266 15.8281H104.328V17H106.234V11.3281C106.234 9.07031 104.375 8.40625 102.766 8.40625C100.641 8.40625 99.3438 9.49219 99.2031 10.9375H101.125C101.281 10.3281 101.828 9.92188 102.719 9.92188C103.711 9.92188 104.25 10.4062 104.25 11.25L104.258 11.9297C103.883 11.9453 102.672 12 102.078 12.0469C100.508 12.1484 98.9219 12.7031 98.9219 14.6094ZM100.844 14.5938C100.844 13.8516 101.445 13.4531 102.391 13.375C102.789 13.3438 103.898 13.2734 104.258 13.2578L104.266 13.9531C104.266 14.9062 103.492 15.7031 102.281 15.7031C101.445 15.7031 100.844 15.3281 100.844 14.5938ZM109 20.1875C110.594 20.1797 111.484 19.3828 111.969 18.0312L115.375 8.51562H113.266L111.297 14.9219H111.203L109.234 8.51562H107.125L110.219 17.1719L110.047 17.625C109.703 18.5391 109.297 18.5703 108.812 18.5781C108.547 18.5703 108.211 18.5703 107.969 18.5469V20.1406C108.227 20.1719 108.602 20.1797 109 20.1875Z" fill="#191919"/>
<path id="Subtract" fill-rule="evenodd" clip-rule="evenodd" d="M0.323249 2.5059L8.39137 10.5315L12.1802 6.74302L3.43915 1.73487C3.08447 1.52715 2.68108 1.41713 2.27006 1.41603C1.77366 1.41504 1.29055 1.5764 0.894374 1.87551C0.664592 2.04899 0.471367 2.26329 0.323249 2.5059ZM2.46769e-05 3.94754V18.922L7.50741 11.4153L2.46769e-05 3.94754ZM0.338876 20.3509C0.407095 20.4595 0.484577 20.5624 0.570655 20.6585C0.802114 20.917 1.0896 21.1191 1.41113 21.2494C1.73267 21.3797 2.07974 21.4347 2.42581 21.4103C2.77189 21.3859 3.10781 21.2827 3.40789 21.1086L12.2115 16.0946L8.39365 12.2969L0.338876 20.3509ZM13.3442 15.4582L16.9366 13.4069C17.2955 13.219 17.5962 12.9364 17.8059 12.5898C18.0157 12.2432 18.1266 11.8458 18.1266 11.4407C18.1266 11.0356 18.0157 10.6382 17.8059 10.2916C17.5962 9.94502 17.2955 9.66245 16.9366 9.47453H16.9492L13.3042 7.3869L9.27761 11.413L13.3442 15.4582Z" fill="#191919"/>
</g>
</svg>
