<svg width="25" height="24" viewBox="0 0 25 24" fill="none" xmlns="http://www.w3.org/2000/svg">
<g id="album-collection">
<path id="Icon (Stroke)" fill-rule="evenodd" clip-rule="evenodd" d="M4.50035 4C4.50035 3.44772 4.94806 3 5.50035 3H19.5003C20.0526 3 20.5003 3.44772 20.5003 4C20.5003 4.55228 20.0526 5 19.5003 5H5.50035C4.94806 5 4.50035 4.55228 4.50035 4ZM3.50035 7C3.50035 6.44772 3.94806 6 4.50035 6H20.5003C21.0526 6 21.5003 6.44772 21.5003 7C21.5003 7.55228 21.0526 8 20.5003 8H4.50035C3.94806 8 3.50035 7.55228 3.50035 7ZM6.11403 9H18.8867C19.3133 8.99998 19.6942 8.99995 20.0088 9.02663C20.3432 9.055 20.7005 9.11928 21.0439 9.30741C21.5369 9.57744 21.9244 10.0057 22.1441 10.5231C22.2971 10.8835 22.3255 11.2454 22.3205 11.581C22.3157 11.8967 22.2778 12.2757 22.2353 12.7002L21.7799 17.2539C21.7321 17.7322 21.6907 18.1471 21.6294 18.4885C21.5643 18.8506 21.4652 19.2067 21.2619 19.545C20.9567 20.0531 20.5078 20.4594 19.9718 20.7125C19.615 20.8811 19.2508 20.9443 18.884 20.973C18.5382 21 18.1212 21 17.6406 21H7.36006C6.87946 21 6.46249 21 6.1167 20.973C5.74991 20.9443 5.38567 20.8811 5.02887 20.7125C4.49293 20.4594 4.04401 20.0531 3.73875 19.545C3.53552 19.2067 3.43636 18.8506 3.37134 18.4885C3.31003 18.1471 3.26856 17.7322 3.22075 17.254L2.76538 12.7002C2.7229 12.2757 2.68498 11.8967 2.68023 11.581C2.67517 11.2454 2.70359 10.8835 2.85661 10.5231C3.07625 10.0057 3.46382 9.57744 3.95676 9.30741C4.3002 9.11928 4.6575 9.055 4.9919 9.02663C5.30645 8.99995 5.68738 8.99998 6.11403 9ZM4.91761 11.0615C4.81902 11.1155 4.74151 11.2011 4.69758 11.3046L4.69712 11.3059L4.69545 11.3115C4.69392 11.3171 4.69135 11.3282 4.68873 11.3464C4.6832 11.3848 4.67845 11.4477 4.68 11.5509C4.68332 11.7714 4.71182 12.0649 4.75926 12.5393L5.20722 17.0189C5.25968 17.5435 5.29403 17.8798 5.33985 18.135C5.38349 18.378 5.4253 18.4687 5.45313 18.515C5.55488 18.6844 5.70453 18.8198 5.88317 18.9042C5.93203 18.9273 6.02638 18.9598 6.27255 18.9791C6.53105 18.9993 6.86913 19 7.39631 19H17.6044C18.1316 19 18.4696 18.9993 18.7281 18.9791C18.9743 18.9598 19.0687 18.9273 19.1175 18.9042C19.2962 18.8198 19.4458 18.6844 19.5476 18.515C19.5754 18.4687 19.6172 18.378 19.6608 18.135C19.7067 17.8798 19.741 17.5435 19.7935 17.0189L20.2414 12.5393C20.2889 12.0649 20.3174 11.7714 20.3207 11.5509C20.3222 11.4477 20.3175 11.3848 20.312 11.3464C20.3093 11.3282 20.3068 11.3171 20.3052 11.3115L20.3036 11.3059L20.3032 11.3049C20.2593 11.2014 20.1817 11.1155 20.0831 11.0615L20.0819 11.0609L20.0765 11.0587C20.071 11.0566 20.0603 11.0529 20.0424 11.0485C20.0048 11.0392 19.9426 11.0282 19.8398 11.0195C19.62 11.0008 19.3252 11 18.8484 11H6.15232C5.67554 11 5.38065 11.0008 5.16093 11.0195C5.05809 11.0282 4.99592 11.0392 4.95829 11.0485C4.94044 11.0529 4.92972 11.0566 4.92422 11.0587L4.91881 11.0609L4.91761 11.0615ZM10.9337 14.4178C10.5696 14.6606 10.5003 14.8861 10.5003 15C10.5003 15.1139 10.5696 15.3394 10.9337 15.5822C11.2908 15.8202 11.8418 16 12.5003 16C13.1589 16 13.7098 15.8202 14.067 15.5822C14.4311 15.3394 14.5003 15.1139 14.5003 15C14.5003 14.8861 14.4311 14.6606 14.067 14.4178C13.7098 14.1798 13.1589 14 12.5003 14C11.8418 14 11.2908 14.1798 10.9337 14.4178ZM9.82433 12.7537C10.553 12.268 11.502 12 12.5003 12C13.4987 12 14.4477 12.268 15.1764 12.7537C15.898 13.2349 16.5003 14.0093 16.5003 15C16.5003 15.9907 15.898 16.7651 15.1764 17.2463C14.4477 17.732 13.4987 18 12.5003 18C11.502 18 10.553 17.732 9.82433 17.2463C9.10265 16.7651 8.50035 15.9907 8.50035 15C8.50035 14.0093 9.10265 13.2349 9.82433 12.7537Z" fill="#191919"/>
</g>
</svg>
