<svg width="16" height="16" viewBox="0 0 16 16" fill="none" xmlns="http://www.w3.org/2000/svg">
<g id="icon-arrow-down-linear">
<path id="Vector" fill-rule="evenodd" clip-rule="evenodd" d="M13.3349 5.69409C13.3349 5.82742 13.3349 5.96075 13.2682 6.02742C13.2016 6.16075 13.1349 6.22742 13.0682 6.29409L8.5349 10.8274C8.46823 10.8941 8.3349 10.9608 8.26823 11.0274C8.1349 11.0941 8.06823 11.0941 7.9349 11.0941C7.80156 11.0941 7.66823 11.0941 7.60156 11.0274C7.46823 10.9608 7.40156 10.8941 7.3349 10.8274L2.86823 6.29409C2.80156 6.22742 2.7349 6.09409 2.66823 6.02742C2.60156 5.89409 2.60156 5.82742 2.60156 5.69409C2.60156 5.56075 2.60156 5.42742 2.66823 5.36075C2.7349 5.22742 2.80156 5.16075 2.86823 5.09409C2.9349 5.02742 3.06823 4.96075 3.1349 4.89409C3.26823 4.82742 3.3349 4.82742 3.46823 4.82742C3.60156 4.82742 3.7349 4.82742 3.80156 4.89409C3.9349 4.96075 4.00156 5.02742 4.06823 5.09409L7.9349 8.96075L11.8016 5.09409C11.9349 4.96075 12.0682 4.89409 12.2682 4.82742C12.4682 4.76075 12.6016 4.82742 12.8016 4.89409C12.9349 4.96075 13.1349 5.09409 13.2016 5.22742C13.2682 5.36075 13.3349 5.56075 13.3349 5.69409Z" fill="current"/>
</g>
</svg>
