<svg width="28" height="28" viewBox="0 0 28 28" fill="none" xmlns="http://www.w3.org/2000/svg">
<g id="icon-bell-linear">
<path id="Icon (Stroke)" fill-rule="evenodd" clip-rule="evenodd" d="M8.25353 4.56132C9.79028 3.12703 11.8584 2.33398 13.9993 2.33398C16.1403 2.33398 18.2084 3.12703 19.7451 4.56132C21.2846 5.99816 22.166 7.96483 22.166 10.034C22.166 12.9613 22.8998 14.963 23.7128 16.2933L23.7255 16.3141C24.1646 17.0327 24.5097 17.5972 24.7417 18.0054C24.8578 18.2096 24.9619 18.4027 25.0383 18.5713C25.0763 18.6552 25.1186 18.7572 25.1517 18.8669C25.178 18.9539 25.2341 19.1565 25.2126 19.4031C25.1993 19.5545 25.1677 19.8303 25.0086 20.1139C24.8495 20.3976 24.6307 20.5684 24.5084 20.6587C24.3291 20.7911 24.1501 20.8507 24.0544 20.8784C23.9449 20.91 23.8392 20.9288 23.7519 20.9411C23.5779 20.9657 23.3779 20.978 23.1729 20.9856C22.765 21.0007 22.1973 21.0007 21.4867 21.0007H18.666C18.666 23.578 16.5766 25.6673 13.9993 25.6673C11.422 25.6673 9.33265 23.578 9.33265 21.0007H6.51192C5.8013 21.0007 5.23369 21.0007 4.82572 20.9856C4.62075 20.978 4.42079 20.9657 4.24677 20.9411C4.15946 20.9288 4.05371 20.91 3.94429 20.8784C3.84856 20.8507 3.66958 20.7911 3.49022 20.6587C3.36794 20.5684 3.14917 20.3976 2.99007 20.1139C2.83097 19.8303 2.79932 19.5545 2.78608 19.4031C2.76451 19.1566 2.82068 18.9539 2.84691 18.8669C2.88001 18.7572 2.92233 18.6552 2.96035 18.5713C3.03677 18.4027 3.1408 18.2096 3.25691 18.0054C3.48893 17.5973 3.83389 17.0328 4.27293 16.3145L4.28587 16.2933C5.09886 14.963 5.83265 12.9613 5.83265 10.034C5.83265 7.96483 6.71407 5.99815 8.25353 4.56132ZM11.666 21.0015C11.666 21.0017 11.666 21.0012 11.666 21.0015C11.6664 22.2898 12.7109 23.334 13.9993 23.334C15.288 23.334 16.3327 22.2893 16.3327 21.0007L11.666 21.0015ZM13.9993 4.66732C12.4272 4.66732 10.9344 5.25094 9.84561 6.26712C8.75956 7.28076 8.16599 8.63765 8.16599 10.034C8.16599 13.3745 7.32198 15.7999 6.27683 17.51C5.99395 17.9729 5.7611 18.354 5.5746 18.6655C5.84503 18.6673 6.16435 18.6673 6.53971 18.6673H21.4589C21.8343 18.6673 22.1536 18.6673 22.424 18.6655C22.2375 18.354 22.0047 17.9729 21.7218 17.51C20.6767 15.7999 19.8327 13.3745 19.8327 10.034C19.8327 8.63765 19.2391 7.28076 18.153 6.26712C17.0643 5.25094 15.5714 4.66732 13.9993 4.66732Z" fill="#191919"/>
</g>
</svg>
