<svg width="42" height="42" viewBox="0 0 42 42" fill="none" xmlns="http://www.w3.org/2000/svg">
<circle cx="21" cy="21" r="19.5" fill="#262626" stroke="#262626" stroke-width="3"/>
<path fill-rule="evenodd" clip-rule="evenodd" d="M20.9992 27.2662C19.6084 27.2646 18.275 26.7114 17.2915 25.7279C16.308 24.7444 15.7548 23.411 15.7532 22.0202C15.7546 20.6292 16.3077 19.2955 17.2912 18.3118C18.2747 17.3281 19.6082 16.7748 20.9992 16.7732C22.3902 16.7748 23.7238 17.3281 24.7073 18.3118C25.6908 19.2955 26.2439 20.6292 26.2452 22.0202C26.2436 23.411 25.6904 24.7444 24.707 25.7279C23.7235 26.7114 22.3901 27.2646 20.9992 27.2662M29.1122 14.1352H26.1582L25.0452 11.9662C24.8687 11.6228 24.601 11.3347 24.2715 11.1336C23.9419 10.9325 23.5633 10.8261 23.1772 10.8262H18.7642C18.3706 10.8261 17.9848 10.9367 17.651 11.1454C17.3172 11.354 17.0487 11.6523 16.8762 12.0062L15.8402 14.1352H12.8862C12.5552 14.135 12.2274 14.2001 11.9216 14.3267C11.6157 14.4533 11.3378 14.6389 11.1037 14.8729C10.8696 15.1069 10.6839 15.3848 10.5572 15.6906C10.4304 15.9964 10.3652 16.3242 10.3652 16.6552V28.2562C10.3652 28.5872 10.4304 28.915 10.5572 29.2208C10.6839 29.5266 10.8696 29.8044 11.1037 30.0384C11.3378 30.2725 11.6157 30.4581 11.9216 30.5846C12.2274 30.7112 12.5552 30.7763 12.8862 30.7762H29.1122C29.4433 30.7763 29.771 30.7112 30.0769 30.5846C30.3828 30.4581 30.6607 30.2725 30.8948 30.0384C31.1289 29.8044 31.3146 29.5266 31.4413 29.2208C31.568 28.915 31.6332 28.5872 31.6332 28.2562V16.6552C31.6332 16.3242 31.568 15.9964 31.4413 15.6906C31.3146 15.3848 31.1289 15.1069 30.8948 14.8729C30.6607 14.6389 30.3828 14.4533 30.0769 14.3267C29.771 14.2001 29.4433 14.135 29.1122 14.1352" fill="#F3F3F3"/>
<path fill-rule="evenodd" clip-rule="evenodd" d="M20.9995 18.6641C20.1099 18.6651 19.257 19.0191 18.628 19.6482C17.999 20.2774 17.6453 21.1304 17.6445 22.0201C17.6451 22.9098 17.9987 23.7629 18.6277 24.3922C19.2568 25.0214 20.1098 25.3753 20.9995 25.3761C21.8893 25.3753 22.7423 25.0214 23.3713 24.3922C24.0004 23.7629 24.354 22.9098 24.3545 22.0201C24.3537 21.1304 24 20.2774 23.3711 19.6482C22.7421 19.0191 21.8892 18.6651 20.9995 18.6641Z" fill="#F3F3F3"/>
</svg>
