<svg width="current" height="current" viewBox="0 0 20 20" fill="none" xmlns="http://www.w3.org/2000/svg">
<g id="icon-arrow-right-linear">
<path id="Vector" fill-rule="evenodd" clip-rule="evenodd" d="M7.18831 16.75C6.90081 16.75 6.61331 16.6375 6.38831 16.425C6.1784 16.2142 6.06055 15.9288 6.06055 15.6313C6.06055 15.3338 6.1784 15.0484 6.38831 14.8375L11.2258 10L6.38831 5.17503C6.1784 4.96419 6.06055 4.67879 6.06055 4.38128C6.06055 4.08377 6.1784 3.79836 6.38831 3.58753C6.59915 3.37762 6.88455 3.25977 7.18206 3.25977C7.47957 3.25977 7.76498 3.37762 7.97581 3.58753L13.6008 9.21253C13.8107 9.42336 13.9286 9.70877 13.9286 10.0063C13.9286 10.3038 13.8107 10.5892 13.6008 10.8L7.97581 16.425C7.76331 16.6375 7.47581 16.75 7.18831 16.75" fill="current"/>
</g>
</svg>
