<svg width="20" height="20" viewBox="0 0 20 20" fill="none" xmlns="http://www.w3.org/2000/svg">
<g id="icon-arrow-right-linear">
<g id="Group 351744">
<path id="Vector" fill-rule="evenodd" clip-rule="evenodd" d="M11.1278 16.7481C10.8403 16.7481 10.5528 16.6356 10.3278 16.4231C10.1179 16.2122 10 15.9268 10 15.6293C10 15.3318 10.1179 15.0464 10.3278 14.8356L15.1653 9.99808L10.3278 5.17308C10.1179 4.96224 10 4.67684 10 4.37933C10 4.08181 10.1179 3.79641 10.3278 3.58558C10.5386 3.37566 10.824 3.25781 11.1215 3.25781C11.419 3.25781 11.7044 3.37566 11.9153 3.58558L17.5403 9.21058C17.7502 9.42141 17.868 9.70681 17.868 10.0043C17.868 10.3018 17.7502 10.5872 17.5403 10.7981L11.9153 16.4231C11.7028 16.6356 11.4153 16.7481 11.1278 16.7481" fill="current"/>
<path id="Vector_2" fill-rule="evenodd" clip-rule="evenodd" d="M3.26058 16.7422C2.97308 16.7422 2.68558 16.6297 2.46058 16.4172C2.25066 16.2064 2.13281 15.921 2.13281 15.6235C2.13281 15.326 2.25066 15.0406 2.46058 14.8297L7.29808 9.99222L2.46058 5.16722C2.25066 4.95638 2.13281 4.67098 2.13281 4.37347C2.13281 4.07595 2.25066 3.79055 2.46058 3.57972C2.67141 3.3698 2.95681 3.25195 3.25433 3.25195C3.55184 3.25195 3.83724 3.3698 4.04808 3.57972L9.67308 9.20472C9.88299 9.41555 10.0008 9.70095 10.0008 9.99847C10.0008 10.296 9.88299 10.5814 9.67308 10.7922L4.04808 16.4172C3.83558 16.6297 3.54808 16.7422 3.26058 16.7422" fill="current"/>
</g>
</g>
</svg>
