<svg width="12" height="12" viewBox="0 0 12 12" fill="none" xmlns="http://www.w3.org/2000/svg">
<g id="item/v">
<path id="Vector" fill-rule="evenodd" clip-rule="evenodd" d="M9.99922 4.27032C9.99922 4.37032 9.99922 4.47032 9.94922 4.52032C9.89922 4.62032 9.84922 4.67032 9.79922 4.72032L6.39922 8.12032C6.34922 8.17032 6.24922 8.22032 6.19922 8.27032C6.09922 8.32032 6.04922 8.32032 5.94922 8.32032C5.84922 8.32032 5.74922 8.32032 5.69922 8.27032C5.59922 8.22032 5.54922 8.17032 5.49922 8.12032L2.14922 4.72032C2.09922 4.67032 2.04922 4.57032 1.99922 4.52032C1.94922 4.42032 1.94922 4.37032 1.94922 4.27032C1.94922 4.17032 1.94922 4.07032 1.99922 4.02032C2.04922 3.92032 2.09922 3.87032 2.14922 3.82032C2.19922 3.77032 2.29922 3.72032 2.34922 3.67032C2.44922 3.62032 2.49922 3.62032 2.59922 3.62032C2.69922 3.62032 2.79922 3.62032 2.84922 3.67032C2.94922 3.72032 2.99922 3.77032 3.04922 3.82032L5.94922 6.72032L8.84922 3.82032C8.94922 3.72032 9.04922 3.67032 9.19922 3.62032C9.34922 3.57032 9.44922 3.62032 9.59922 3.67032C9.69922 3.72032 9.84922 3.82032 9.89922 3.92032C9.94922 4.02032 9.99922 4.17032 9.99922 4.27032Z" fill="#191919"/>
</g>
</svg>
