<svg width="20" height="20" viewBox="0 0 20 20" fill="none" xmlns="http://www.w3.org/2000/svg">
<g id="icon-clip-mono">
<path id="Vector" d="M6.9987 17.9997C5.41536 17.9997 3.7487 17.4163 2.58203 16.1663C0.165365 13.7497 0.165365 9.74967 2.58203 7.24967L6.33203 3.49967C6.66537 3.16634 7.2487 3.16634 7.66536 3.49967C7.9987 3.83301 7.9987 4.41634 7.66536 4.83301L3.91536 8.58301C2.16536 10.333 2.16536 13.1663 3.91536 14.833C5.66536 16.583 8.4987 16.583 10.1654 14.833L16.6654 8.33301C17.6654 7.33301 17.6654 5.58301 16.6654 4.58301C15.6654 3.58301 13.9154 3.58301 12.9154 4.58301L6.9987 10.4997C6.66536 10.833 6.66536 11.4163 6.9987 11.7497C7.33203 12.083 7.91536 12.083 8.2487 11.7497L12.2487 7.74967C12.582 7.41634 13.1654 7.41634 13.582 7.74967C13.9154 8.08301 13.9154 8.66634 13.582 9.08301L9.58203 13.083C8.41536 14.1663 6.66537 14.1663 5.66537 13.083C4.58203 11.9997 4.58203 10.333 5.66537 9.24967L11.582 3.33301C13.332 1.58301 16.1654 1.58301 17.9154 3.33301C19.6654 5.08301 19.6654 7.91634 17.9154 9.66634L11.4154 16.1663C10.2487 17.333 8.66536 17.9997 6.9987 17.9997Z" fill="#4C4C4C"/>
</g>
</svg>
