<svg width="current" height="current" viewBox="0 0 12 13" fill="none" xmlns="http://www.w3.org/2000/svg">
<path fill-rule="evenodd" clip-rule="evenodd" d="M6.9085 6.49957L9.734 3.67407C9.78975 3.61836 9.83398 3.55221 9.86416 3.4794C9.89434 3.4066 9.90989 3.32856 9.90991 3.24975C9.90993 3.17093 9.89443 3.09289 9.86429 3.02006C9.83415 2.94724 9.78997 2.88107 9.73425 2.82532C9.67854 2.76957 9.61239 2.72535 9.53959 2.69517C9.46678 2.66498 9.38874 2.64944 9.30993 2.64941C9.23112 2.64939 9.15307 2.66489 9.08025 2.69503C9.00742 2.72517 8.94125 2.76936 8.8855 2.82507L6.06 5.65107L3.234 2.82507C3.12018 2.71876 2.96951 2.66083 2.81378 2.66351C2.65806 2.66619 2.50946 2.72926 2.39937 2.83943C2.28927 2.94959 2.22628 3.09822 2.22369 3.25395C2.22111 3.40967 2.27912 3.56031 2.3855 3.67407L5.2115 6.49957L2.3855 9.32507C2.30198 9.40917 2.24519 9.51609 2.22228 9.63237C2.19936 9.74866 2.21134 9.86913 2.25671 9.97863C2.30208 10.0881 2.37882 10.1818 2.47727 10.2478C2.57571 10.3138 2.69148 10.3492 2.81 10.3496C2.9635 10.3496 3.117 10.2911 3.234 10.1741L6.06 7.34807L8.8855 10.1741C8.94115 10.2299 9.00727 10.2742 9.08007 10.3044C9.15287 10.3346 9.23093 10.3502 9.30975 10.3502C9.38858 10.3502 9.46663 10.3346 9.53943 10.3044C9.61224 10.2742 9.67836 10.2299 9.734 10.1741C9.78979 10.1183 9.83404 10.0522 9.86424 9.97933C9.89443 9.9065 9.90998 9.82842 9.90998 9.74957C9.90998 9.67072 9.89443 9.59265 9.86424 9.51981C9.83404 9.44697 9.78979 9.38079 9.734 9.32507L6.9085 6.49957Z" fill="#191919"/>
</svg>
