<svg width="20" height="20" viewBox="0 0 20 20" fill="none" xmlns="http://www.w3.org/2000/svg">
<g id="leftsidenavigation/icon">
<path id="Icon (Stroke)" fill-rule="evenodd" clip-rule="evenodd" d="M5.13585 2.5H14.8668C15.306 2.49999 15.685 2.49997 15.9972 2.52548C16.3266 2.55239 16.6543 2.61182 16.9696 2.77249C17.44 3.01217 17.8225 3.39462 18.0622 3.86503C18.2228 4.18034 18.2822 4.50802 18.3092 4.83748C18.3347 5.14962 18.3347 5.52858 18.3346 5.96786V14.0321C18.3347 14.4714 18.3347 14.8504 18.3092 15.1625C18.2822 15.492 18.2228 15.8197 18.0622 16.135C17.8225 16.6054 17.44 16.9878 16.9696 17.2275C16.6543 17.3882 16.3266 17.4476 15.9972 17.4745C15.685 17.5 15.3061 17.5 14.8668 17.5H5.13583C4.69655 17.5 4.31759 17.5 4.00545 17.4745C3.67599 17.4476 3.34831 17.3882 3.03299 17.2275C2.56259 16.9878 2.18014 16.6054 1.94045 16.135C1.77979 15.8197 1.72036 15.492 1.69344 15.1625C1.66794 14.8504 1.66795 14.4714 1.66797 14.0321V5.96788C1.66795 5.52859 1.66794 5.14962 1.69344 4.83748C1.72036 4.50802 1.77979 4.18034 1.94045 3.86503C2.18014 3.39462 2.56259 3.01217 3.03299 2.77249C3.34831 2.61182 3.67599 2.55239 4.00545 2.52548C4.31759 2.49997 4.69656 2.49999 5.13585 2.5ZM7.5013 15.8333H14.8346C15.3151 15.8333 15.6253 15.8327 15.8614 15.8134C16.0878 15.7949 16.1718 15.7635 16.213 15.7425C16.3698 15.6626 16.4972 15.5351 16.5771 15.3783C16.5981 15.3371 16.6295 15.2532 16.648 15.0268C16.6673 14.7907 16.668 14.4805 16.668 14V8.33334L7.5013 8.33334V15.8333ZM5.83464 8.33334V15.8333H5.16797C4.68751 15.8333 4.37728 15.8327 4.14117 15.8134C3.91478 15.7949 3.83085 15.7635 3.78964 15.7425C3.63284 15.6626 3.50536 15.5351 3.42546 15.3783C3.40447 15.3371 3.37307 15.2532 3.35458 15.0268C3.33528 14.7907 3.33464 14.4805 3.33464 14L3.33464 8.33334L5.83464 8.33334ZM6.66797 6.66667L16.668 6.66667V6C16.668 5.51954 16.6673 5.20931 16.648 4.9732C16.6295 4.74681 16.5981 4.66288 16.5771 4.62168C16.4972 4.46487 16.3698 4.33739 16.213 4.2575C16.1718 4.2365 16.0878 4.2051 15.8614 4.18661C15.6253 4.16732 15.3151 4.16667 14.8346 4.16667H5.16797C4.68751 4.16667 4.37728 4.16732 4.14117 4.18661C3.91478 4.2051 3.83085 4.2365 3.78964 4.2575C3.63284 4.33739 3.50536 4.46487 3.42546 4.62168C3.40447 4.66288 3.37307 4.74681 3.35458 4.9732C3.33528 5.20931 3.33464 5.51954 3.33464 6V6.66667H6.66797Z" fill="#191919"/>
</g>
</svg>
