<svg width="14" height="14" viewBox="0 0 14 14" fill="none" xmlns="http://www.w3.org/2000/svg">
<g id="icon">
<path id="Exclude" fill-rule="evenodd" clip-rule="evenodd" d="M9.15987 5.42085C9.38768 5.64866 9.38768 6.01801 9.15987 6.24581L6.82654 8.57915C6.59874 8.80695 6.22939 8.80695 6.00158 8.57915L4.83492 7.41248C4.60711 7.18467 4.60711 6.81533 4.83492 6.58752C5.06272 6.35972 5.43207 6.35972 5.65987 6.58752L6.41406 7.34171L8.33492 5.42085C8.56272 5.19305 8.93207 5.19305 9.15987 5.42085ZM7.40564 1.33854C7.17884 1.11632 6.81595 1.11632 6.58915 1.33854L5.70986 2.20005L4.51761 1.89361C4.21008 1.81456 3.89582 1.996 3.81051 2.30185L3.47978 3.48759L2.29404 3.81832C1.98819 3.90363 1.80675 4.2179 1.88579 4.52542L2.19224 5.71767L1.33073 6.59696C1.10851 6.82377 1.10851 7.18665 1.33073 7.41345L2.19224 8.29275L1.88579 9.48499C1.80675 9.79252 1.98819 10.1068 2.29404 10.1921L3.47978 10.5228L3.81051 11.7086C3.89582 12.0144 4.21008 12.1959 4.51761 12.1168L5.70986 11.8104L6.58915 12.6719C6.81595 12.8941 7.17884 12.8941 7.40564 12.6719L8.28493 11.8104L9.47718 12.1168C9.78471 12.1959 10.099 12.0144 10.1843 11.7086L10.515 10.5228L11.7008 10.1921C12.0066 10.1068 12.188 9.79252 12.109 9.48499L11.8026 8.29275L12.6641 7.41345C12.8863 7.18665 12.8863 6.82377 12.6641 6.59696L11.8026 5.71767L12.109 4.52542C12.188 4.2179 12.0066 3.90363 11.7008 3.81832L10.515 3.48759L10.1843 2.30185C10.099 1.996 9.78471 1.81456 9.47718 1.89361L8.28493 2.20005L7.40564 1.33854Z" fill="#5F50F0"/>
</g>
</svg>
