<svg width="20" height="20" viewBox="0 0 20 20" fill="none" xmlns="http://www.w3.org/2000/svg">
<g id="leftsidenavigation/icon">
<path id="Icon (Stroke)" fill-rule="evenodd" clip-rule="evenodd" d="M1.66797 8.33366C1.66797 4.65176 4.65274 1.66699 8.33464 1.66699C8.79487 1.66699 9.16797 2.04009 9.16797 2.50033V8.33366C9.16797 8.7939 8.79487 9.16699 8.33464 9.16699H2.5013C2.04106 9.16699 1.66797 8.7939 1.66797 8.33366ZM3.40377 7.50033H7.5013V3.40279C5.40755 3.75406 3.75503 5.40657 3.40377 7.50033ZM10.418 5.00033C10.418 4.54009 10.7911 4.16699 11.2513 4.16699C15.1633 4.16699 18.3346 7.33831 18.3346 11.2503C18.3346 15.1623 15.1633 18.3337 11.2513 18.3337C7.33929 18.3337 4.16797 15.1623 4.16797 11.2503C4.16797 10.7901 4.54106 10.417 5.0013 10.417H10.418V5.00033ZM12.0846 5.89737V11.2503C12.0846 11.7106 11.7115 12.0837 11.2513 12.0837H5.89834C6.29918 14.6796 8.54315 16.667 11.2513 16.667C14.2428 16.667 16.668 14.2419 16.668 11.2503C16.668 8.54217 14.6805 6.2982 12.0846 5.89737Z" fill="#191919"/>
</g>
</svg>
