<svg width="20" height="20" viewBox="0 0 20 20" fill="none" xmlns="http://www.w3.org/2000/svg">
<g id="leftsidenavigation/icon">
<path id="Vector" d="M10.0013 18.3337C5.41797 18.3337 1.66797 14.5837 1.66797 10.0003C1.66797 5.41699 5.41797 1.66699 10.0013 1.66699C14.5846 1.66699 18.3346 5.41699 18.3346 10.0003C18.3346 14.5837 14.5846 18.3337 10.0013 18.3337ZM10.0013 3.33366C6.33464 3.33366 3.33464 6.33366 3.33464 10.0003C3.33464 13.667 6.33464 16.667 10.0013 16.667C13.668 16.667 16.668 13.667 16.668 10.0003C16.668 6.33366 13.668 3.33366 10.0013 3.33366ZM10.0013 13.8337C7.7513 13.8337 6.41797 12.0837 6.33464 12.0003C6.08464 11.667 6.16797 11.0837 6.5013 10.8337C6.83464 10.5837 7.41797 10.667 7.66797 11.0003C7.66797 11.0003 8.58464 12.167 10.0013 12.167C11.418 12.167 12.3346 11.0003 12.3346 11.0003C12.5846 10.667 13.168 10.5837 13.5013 10.8337C13.8346 11.0837 13.918 11.667 13.668 12.0003C13.5846 12.0837 12.2513 13.8337 10.0013 13.8337ZM12.2513 9.00033C11.5846 9.00033 11.0013 8.41699 11.0013 7.75033C11.0013 7.08366 11.5846 6.50033 12.2513 6.50033C12.918 6.50033 13.5013 7.08366 13.5013 7.75033C13.5013 8.41699 12.918 9.00033 12.2513 9.00033ZM7.7513 9.00033C7.08464 9.00033 6.58464 8.41699 6.58464 7.75033C6.58464 7.08366 7.16797 6.50033 7.7513 6.50033C8.41797 6.50033 9.0013 7.08366 9.0013 7.75033C9.0013 8.41699 8.41797 9.00033 7.7513 9.00033Z" fill="#191919"/>
</g>
</svg>
