<svg width="13" height="11" viewBox="0 0 13 11" fill="none" xmlns="http://www.w3.org/2000/svg">
<path id="Icon (Stroke)" fill-rule="evenodd" clip-rule="evenodd" d="M6.39189 1.30367C5.22176 0.302057 3.49592 0.0523249 2.14347 1.20607C0.678958 2.45542 0.465083 4.56208 1.62447 6.05163C2.06035 6.61163 2.90824 7.44984 3.71957 8.21443C4.54148 8.98899 5.36137 9.72081 5.76565 10.0783C5.76825 10.0806 5.7709 10.0829 5.77362 10.0853C5.81125 10.1186 5.86017 10.1619 5.90739 10.1974C5.96451 10.2404 6.04832 10.2951 6.16085 10.3286C6.30919 10.3728 6.4685 10.3728 6.61684 10.3286C6.72937 10.2951 6.81318 10.2404 6.87031 10.1974C6.91752 10.1619 6.96644 10.1186 7.00407 10.0853L7.01204 10.0783C7.41632 9.72081 8.23622 8.98899 9.05812 8.21443C9.86945 7.44984 10.7173 6.61163 11.1532 6.05163C12.3077 4.56836 12.1275 2.44517 10.6285 1.20125C9.2614 0.0667838 7.55921 0.301877 6.39189 1.30367Z" fill="#F66570" stroke="white" stroke-width="0.8" stroke-linecap="round" stroke-linejoin="round"/>
</svg>
