<svg width="14" height="14" viewBox="0 0 14 14" fill="none" xmlns="http://www.w3.org/2000/svg">
<g id="heart_inactive">
<path id="Icon (Stroke)" fill-rule="evenodd" clip-rule="evenodd" d="M6.99906 2.66265C5.76055 1.60251 3.93388 1.33818 2.5024 2.55935C0.952317 3.8817 0.725945 6.11144 1.95308 7.68803C2.41442 8.28076 3.31186 9.16794 4.17059 9.97721C5.04053 10.797 5.90833 11.5716 6.33623 11.95C6.33898 11.9524 6.34179 11.9549 6.34466 11.9574C6.38449 11.9927 6.43628 12.0385 6.48625 12.0761C6.54671 12.1215 6.63542 12.1795 6.75452 12.2149C6.91153 12.2617 7.08015 12.2617 7.23716 12.2149C7.35626 12.1795 7.44497 12.1215 7.50543 12.0761C7.5554 12.0385 7.60718 11.9927 7.64701 11.9574L7.65545 11.95C8.08335 11.5716 8.95115 10.797 9.82109 9.97721C10.6798 9.16794 11.5773 8.28076 12.0386 7.68803C13.2606 6.11809 13.0698 3.87084 11.4832 2.55424C10.0362 1.35349 8.23459 1.60232 6.99906 2.66265ZM6.55674 3.86656C5.6667 2.82765 4.27517 2.58197 3.25888 3.44895C2.17866 4.37046 2.03472 5.89234 2.87318 6.96958C3.27054 7.4801 4.10182 8.30793 4.97006 9.12616C5.75697 9.86775 6.54421 10.5737 6.99584 10.9743C7.44747 10.5737 8.23471 9.86775 9.02162 9.12616C9.88986 8.30794 10.7211 7.4801 11.1185 6.96958C11.9621 5.8857 11.8278 4.35771 10.7389 3.45406C9.69446 2.58736 8.32794 2.8326 7.44213 3.86656C7.33131 3.99591 7.16961 4.07035 6.99944 4.07035C6.82926 4.07035 6.66756 3.99591 6.55674 3.86656Z" fill="#7F7F7F"/>
</g>
</svg>
