<svg width="16" height="16" viewBox="0 0 16 16" fill="none" xmlns="http://www.w3.org/2000/svg">
<g id="icon-verticaldots-fill">
<path id="Union" fill-rule="evenodd" clip-rule="evenodd" d="M9.33366 3.33333C9.33366 4.06971 8.73671 4.66667 8.00033 4.66667C7.26395 4.66667 6.66699 4.06971 6.66699 3.33333C6.66699 2.59695 7.26395 2 8.00033 2C8.73671 2 9.33366 2.59695 9.33366 3.33333ZM9.33366 8C9.33366 8.73638 8.73671 9.33333 8.00033 9.33333C7.26395 9.33333 6.66699 8.73638 6.66699 8C6.66699 7.26362 7.26395 6.66667 8.00033 6.66667C8.73671 6.66667 9.33366 7.26362 9.33366 8ZM8.00033 14C8.73671 14 9.33366 13.403 9.33366 12.6667C9.33366 11.9303 8.73671 11.3333 8.00033 11.3333C7.26395 11.3333 6.66699 11.9303 6.66699 12.6667C6.66699 13.403 7.26395 14 8.00033 14Z" fill="#7F7F7F"/>
</g>
</svg>
