<svg width="20" height="20" viewBox="0 0 20 20" fill="none" xmlns="http://www.w3.org/2000/svg">
<g id="leftsidenavigation/icon">
<g id="Group">
<g id="Group_2">
<path id="Vector" d="M3.61183 11.7525V7.06705C3.61183 6.60815 3.23982 6.23613 2.78091 6.23613C2.32201 6.23613 1.95 6.60815 1.95 7.06705V11.7525C1.95 12.2114 2.32201 12.5834 2.78091 12.5834C3.23982 12.5834 3.61183 12.2114 3.61183 11.7525Z" fill="#191919" stroke="#191919" stroke-width="0.1"/>
<path id="Vector_2" d="M16.5088 16.8754L16.5087 16.8756L16.5126 16.8767C16.7984 16.9584 17.0864 16.9182 17.3043 16.7833C17.523 16.6479 17.6696 16.4176 17.6696 16.1258V2.77218C17.6696 2.19065 17.0876 1.77531 16.5078 2.0229L5.89138 5.94952C5.40074 6.13099 5.075 6.59878 5.075 7.1219V11.6931C5.075 12.2187 5.40383 12.6882 5.89781 12.8678L6.78357 13.1899C6.70939 13.4872 6.63683 13.7908 6.63683 14.0954C6.63683 15.2039 7.11209 16.1532 7.82284 16.864C8.53401 17.5752 9.56156 18.05 10.5914 18.05C12.0784 18.05 13.4105 17.1984 14.0517 15.9541L16.5088 16.8754ZM6.8149 7.41422L16.0859 3.9376V14.9044H16.0674L14.5145 14.2833L12.9527 13.6585L12.9527 13.6585L12.9514 13.658L9.12488 12.2524L9.12486 12.2524L6.8149 11.4054V7.41422ZM10.5914 16.3882C9.36955 16.3882 8.29866 15.3173 8.29866 14.0954V14.0945V14.0936V14.0927V14.0918V14.0909V14.09V14.0891V14.0882V14.0873V14.0864V14.0855V14.0846V14.0837V14.0828V14.0819V14.081V14.0801V14.0792V14.0784V14.0775V14.0766V14.0757V14.0748V14.074V14.0731V14.0722V14.0714V14.0705V14.0696V14.0687V14.0679V14.067V14.0662V14.0653V14.0644V14.0636V14.0627V14.0619V14.061V14.0602V14.0593V14.0585V14.0576V14.0568V14.056V14.0551V14.0543V14.0534V14.0526V14.0518V14.0509V14.0501V14.0493V14.0484V14.0476V14.0468V14.046V14.0451V14.0443V14.0435V14.0427V14.0419V14.041V14.0402V14.0394V14.0386V14.0378V14.037V14.0362V14.0354V14.0345V14.0337V14.0329V14.0321V14.0313V14.0305V14.0297V14.0289V14.0281V14.0273V14.0265V14.0258V14.025V14.0242V14.0234V14.0226V14.0218V14.021V14.0202V14.0195V14.0187V14.0179V14.0171V14.0163V14.0156V14.0148V14.014V14.0132V14.0125V14.0117V14.0109V14.0101V14.0094V14.0086V14.0078V14.0071V14.0063V14.0056V14.0048V14.004V14.0033V14.0025V14.0018V14.001V14.0002V13.9995V13.9987V13.998V13.9972V13.9965V13.9957V13.995V13.9942V13.9935V13.9927V13.992V13.9912V13.9905V13.9898V13.989V13.9883V13.9875V13.9868V13.986V13.9853V13.9846V13.9838V13.9831V13.9824V13.9816V13.9809V13.9802V13.9794V13.9787V13.978V13.9772V13.9765V13.9758V13.9751V13.9743V13.9736V13.9729V13.9722V13.9714V13.9707V13.97V13.9693V13.9686V13.9678V13.9671V13.9664V13.9657V13.965V13.9643V13.9635V13.9628V13.9621V13.9614V13.9607V13.96V13.9593V13.9585V13.9578V13.9571V13.9564V13.9557V13.955V13.9543V13.9536V13.9529V13.9522V13.9515V13.9508V13.9501V13.9493V13.9486V13.9479V13.9472V13.9465V13.9458V13.9451V13.9444V13.9437V13.943V13.9423V13.9416V13.9409V13.9402V13.9395V13.9388V13.9381V13.9374V13.9368V13.9361V13.9354V13.9347V13.934V13.9333V13.9326V13.9319V13.9312V13.9305V13.9298V13.9291V13.9284V13.9277V13.927V13.9263V13.9257V13.925V13.9243V13.9236V13.9229V13.9222V13.9215V13.9208V13.9201V13.9194V13.9188V13.9181V13.9174V13.9167V13.916V13.9153V13.9146V13.9139V13.9133V13.9126V13.9119V13.9112V13.9105V13.9098V13.9091V13.9084V13.9078V13.9071V13.9064V13.9057V13.905V13.9043V13.9036V13.9029V13.9023V13.9016V13.9009V13.9002V13.8995V13.8988V13.8981V13.8975V13.8968V13.8961V13.8954V13.8947V13.894V13.8933V13.8927V13.892V13.8913V13.8906V13.8899V13.8892V13.8885V13.8878V13.8872V13.8865V13.8858V13.8851V13.8844V13.8837V13.883V13.8823V13.8816V13.881V13.8803V13.8796V13.8789V13.8782V13.8775V13.8768V13.8761V13.8754V13.8747V13.8741V13.8734V13.8727V13.872V13.8713V13.8706V13.8699V13.8692V13.8685V13.8678V13.8671V13.8664V13.8657V13.865V13.8643V13.8637V13.863V13.8623V13.8616V13.8609V13.8602V13.8595V13.8588V13.8581V13.8574V13.8567V13.856V13.8553V13.8546V13.8539V13.8532V13.8525V13.8518V13.8511V13.8504V13.8496V13.8489V13.8482V13.8475V13.8468V13.8461V13.8454V13.8447V13.844V13.8433V13.8426V13.8419V13.8411V13.8404V13.8397V13.839V13.8383V13.8376V13.8369V13.8362V13.8354V13.8347V13.834V13.8333V13.8326V13.8318V13.8311V13.8304V13.8297V13.829V13.8282V13.8275V13.8268V13.8261V13.8253V13.8246V13.8239V13.8232V13.8224V13.8217V13.821V13.8202V13.8195V13.8188V13.818V13.8173V13.8166V13.8158V13.8151V13.8144V13.8136V13.8129V13.8121V13.8114V13.8107V13.8099V13.8092V13.8084V13.8077V13.8069V13.8062V13.8054V13.8047V13.8039V13.8032V13.8024V13.8017V13.8009V13.8002V13.7994V13.7987V13.7979V13.7971V13.7964V13.7956V13.7948V13.7941V13.7933V13.7926V13.7918V13.791V13.7903V13.7895V13.7887V13.7879V13.7872V13.7864V13.7856V13.7848V13.7841V13.7833V13.7825V13.7817V13.7809V13.7802V13.7794V13.7786V13.7778V13.7776L12.4713 15.3708C12.0853 16.0247 11.4132 16.3882 10.5914 16.3882Z" fill="#191919" stroke="#191919" stroke-width="0.1"/>
</g>
</g>
</g>
</svg>
