<svg width="16" height="16" viewBox="0 0 16 16" fill="none" xmlns="http://www.w3.org/2000/svg">
<g id="Frame 482175056">
<path id="Icon (Stroke)" fill-rule="evenodd" clip-rule="evenodd" d="M11.7334 1.73633C12.1016 1.73633 12.4001 2.0348 12.4001 2.40299V3.73633H13.7334C14.1016 3.73633 14.4001 4.03481 14.4001 4.40299C14.4001 4.77118 14.1016 5.06966 13.7334 5.06966H12.4001V6.403C12.4001 6.77118 12.1016 7.06966 11.7334 7.06966C11.3652 7.06966 11.0667 6.77118 11.0667 6.403V5.06966H9.7334C9.36521 5.06966 9.06674 4.77118 9.06674 4.40299C9.06674 4.03481 9.36521 3.73633 9.7334 3.73633H11.0667V2.40299C11.0667 2.0348 11.3652 1.73633 11.7334 1.73633ZM4.50771 2.40299H7.06674C7.43493 2.40299 7.7334 2.70147 7.7334 3.06966C7.7334 3.43785 7.43493 3.73633 7.06674 3.73633H4.5334C4.14903 3.73633 3.90085 3.73685 3.71196 3.75228C3.53085 3.76708 3.46371 3.7922 3.43074 3.80899C3.3053 3.87291 3.20331 3.97489 3.1394 4.10033C3.1226 4.1333 3.09748 4.20044 3.08269 4.38155C3.06725 4.57044 3.06674 4.81863 3.06674 5.20299V10.9883L4.62451 9.41936L4.64268 9.40137C4.89029 9.15581 5.104 8.94386 5.29436 8.78353C5.49537 8.61423 5.71349 8.46424 5.98127 8.37773C6.381 8.24859 6.81124 8.24859 7.21097 8.37773C7.47875 8.46424 7.69687 8.61423 7.89788 8.78353C8.08824 8.94386 8.30195 9.15581 8.54956 9.40137L9.2436 10.0896C9.40454 9.93193 9.55035 9.79356 9.68465 9.68062C9.88924 9.50857 10.1115 9.35626 10.3843 9.27019C10.7909 9.14192 11.2279 9.14695 11.6314 9.28453C11.9022 9.37686 12.1209 9.53423 12.3215 9.71094C12.3473 9.73363 12.3734 9.75731 12.4001 9.78193V9.06966C12.4001 8.70147 12.6985 8.403 13.0667 8.403C13.4349 8.403 13.7334 8.70147 13.7334 9.06966V11.6287C13.7334 11.9801 13.7334 12.2833 13.713 12.533C13.6915 12.7966 13.6439 13.0587 13.5154 13.311C13.3237 13.6873 13.0177 13.9933 12.6414 14.185C12.4164 14.2996 12.1844 14.3496 11.9506 14.3745C11.6819 14.403 11.3521 14.403 10.9677 14.403L4.50769 14.403C4.15627 14.403 3.8531 14.403 3.60338 14.3826C3.33982 14.3611 3.07767 14.3135 2.82542 14.185C2.4491 13.9933 2.14314 13.6873 1.95139 13.311C1.84257 13.0974 1.79209 12.8776 1.76594 12.6558C1.73334 12.3793 1.73337 12.0389 1.7334 11.6413L1.7334 5.1773C1.73339 4.82587 1.73338 4.52269 1.75378 4.27298C1.77532 4.00941 1.82286 3.74727 1.95139 3.49501C2.14314 3.11869 2.4491 2.81273 2.82542 2.62098C3.07767 2.49245 3.33982 2.44491 3.60338 2.42337C3.8531 2.40297 4.15627 2.40298 4.50771 2.40299ZM12.4001 11.6763L12.0293 11.2998C11.7592 11.0193 11.5842 10.8384 11.4401 10.7114C11.3018 10.5895 11.2363 10.5585 11.2012 10.5465C11.0667 10.5007 10.921 10.499 10.7855 10.5418C10.7501 10.5529 10.6839 10.5824 10.5428 10.7011C10.4443 10.7839 10.3313 10.8907 10.1843 11.0347L12.0853 12.9692C12.1882 12.9053 12.2721 12.8142 12.3274 12.7057C12.3442 12.6727 12.3693 12.6055 12.3841 12.4244C12.3986 12.2478 12.3999 12.0194 12.4001 11.6763ZM10.3147 13.0697L8.7707 11.4984L7.62886 10.3661C7.35797 10.0975 7.1828 9.9245 7.03895 9.80334C6.90111 9.68725 6.83621 9.65784 6.80107 9.64649C6.66783 9.60345 6.52441 9.60345 6.39117 9.64649C6.35603 9.65784 6.29113 9.68725 6.15329 9.80334C6.00977 9.92422 5.83506 10.0967 5.56521 10.3643L3.17676 12.7699C3.24009 12.8659 3.32747 12.9444 3.43074 12.997C3.46371 13.0138 3.53085 13.0389 3.71196 13.0537C3.90085 13.0691 4.14903 13.0697 4.5334 13.0697H10.3147Z" fill="#191919"/>
</g>
</svg>
