<svg width="16" height="16" viewBox="0 0 16 16" fill="current" xmlns="http://www.w3.org/2000/svg">
<g id="icon-plus-linear">
<path id="Vector" fill-rule="evenodd" clip-rule="evenodd" d="M13.4677 7.20007H8.80104V2.5334C8.80104 2.32123 8.71676 2.11774 8.56673 1.96771C8.4167 1.81768 8.21321 1.7334 8.00104 1.7334C7.78887 1.7334 7.58539 1.81768 7.43536 1.96771C7.28533 2.11774 7.20104 2.32123 7.20104 2.5334V7.20007H2.53438C2.3222 7.20007 2.11872 7.28435 1.96869 7.43438C1.81866 7.58441 1.73438 7.78789 1.73438 8.00006C1.73438 8.21224 1.81866 8.41572 1.96869 8.56575C2.11872 8.71578 2.3222 8.80007 2.53438 8.80007H7.20104V13.4667C7.20104 13.6789 7.28533 13.8824 7.43536 14.0324C7.58539 14.1824 7.78887 14.2667 8.00104 14.2667C8.21321 14.2667 8.4167 14.1824 8.56673 14.0324C8.71676 13.8824 8.80104 13.6789 8.80104 13.4667V8.80007H13.4677C13.6799 8.80007 13.8834 8.71578 14.0334 8.56575C14.1834 8.41572 14.2677 8.21224 14.2677 8.00006C14.2677 7.78789 14.1834 7.58441 14.0334 7.43438C13.8834 7.28435 13.6799 7.20007 13.4677 7.20007Z" fill="current"/>
</g>
</svg>
