<svg width="14" height="14" viewBox="0 0 14 14" fill="none" xmlns="http://www.w3.org/2000/svg">
<g id="reply">
<path id="Icon (Stroke)" fill-rule="evenodd" clip-rule="evenodd" d="M7.0013 2.33268C4.42397 2.33268 2.33464 4.42202 2.33464 6.99935C2.33464 7.74559 2.50936 8.44935 2.81961 9.07349C2.99004 9.41636 2.98147 9.83592 2.94536 10.1619C2.90621 10.5155 2.81716 10.8921 2.72194 11.2259C2.67796 11.38 2.63162 11.5286 2.58635 11.666H7.0013C9.57863 11.666 11.668 9.57668 11.668 6.99935C11.668 4.42202 9.57863 2.33268 7.0013 2.33268ZM1.21342 12.0246L1.21489 12.0211L1.22143 12.005C1.22734 11.9905 1.23623 11.9684 1.24757 11.9397C1.27028 11.8823 1.30272 11.7984 1.34073 11.6952C1.41706 11.4878 1.51429 11.2064 1.60004 10.9058C1.6867 10.6021 1.75678 10.2954 1.78579 10.0335C1.80024 9.90305 1.80304 9.796 1.7967 9.71335C1.79358 9.67278 1.78858 9.64252 1.78352 9.62118C1.77875 9.60107 1.77483 9.59268 1.77483 9.59268C1.38618 8.8108 1.16797 7.92979 1.16797 6.99935C1.16797 3.77769 3.77964 1.16602 7.0013 1.16602C10.223 1.16602 12.8346 3.77769 12.8346 6.99935C12.8346 10.221 10.223 12.8327 7.0013 12.8327H1.75177C1.55675 12.8327 1.37458 12.7352 1.26639 12.573C1.15823 12.4108 1.13826 12.2052 1.21315 12.0253L1.21342 12.0246Z" fill="#7F7F7F"/>
</g>
</svg>
