<svg width="20" height="20" viewBox="0 0 20 20" fill="none" xmlns="http://www.w3.org/2000/svg">
<g id="leftsidenavigation/icon">
<path id="Union" fill-rule="evenodd" clip-rule="evenodd" d="M3.33464 10.0003C3.33464 6.31843 6.3194 3.33366 10.0013 3.33366C13.6832 3.33366 16.668 6.31843 16.668 10.0003C16.668 13.6822 13.6832 16.667 10.0013 16.667C6.3194 16.667 3.33464 13.6822 3.33464 10.0003ZM10.0013 1.66699C5.39893 1.66699 1.66797 5.39795 1.66797 10.0003C1.66797 14.6027 5.39893 18.3337 10.0013 18.3337C14.6037 18.3337 18.3346 14.6027 18.3346 10.0003C18.3346 5.39795 14.6037 1.66699 10.0013 1.66699ZM10.1241 7.53585C9.88202 7.49432 9.633 7.53982 9.4212 7.6643C9.2094 7.78878 9.04849 7.98419 8.96696 8.21594C8.81424 8.6501 8.33847 8.87824 7.90431 8.72552C7.47016 8.57279 7.24201 8.09703 7.39474 7.66287C7.60688 7.05983 8.02559 6.55132 8.57673 6.22741C9.12786 5.9035 9.77585 5.7851 10.4059 5.89318C11.036 6.00125 11.6075 6.32882 12.0192 6.81788C12.4307 7.30682 12.6561 7.92561 12.6552 8.56471C12.6549 9.51082 12.0304 10.1563 11.5503 10.5186C11.0381 10.9052 10.7816 11.327 10.7816 11.6875C10.7816 12.1478 10.4085 12.5209 9.94828 12.5209C9.48804 12.5209 9.11495 12.1478 9.11495 11.6875C9.11495 10.5551 9.86678 9.70114 10.5463 9.18831C10.8823 8.93472 10.9886 8.72075 10.9886 8.56394L10.9886 8.5627C10.9889 8.31703 10.9023 8.07916 10.7441 7.89121C10.5859 7.70327 10.3663 7.57739 10.1241 7.53585ZM10.8371 13.7416C10.8371 14.2018 10.464 14.5749 10.0038 14.5749C9.54353 14.5749 9.17043 14.2018 9.17043 13.7416C9.17043 13.2813 9.54353 12.9082 10.0038 12.9082C10.464 12.9082 10.8371 13.2813 10.8371 13.7416Z" fill="#191919"/>
</g>
</svg>
