<svg width="16" height="16" viewBox="0 0 16 16" fill="none" xmlns="http://www.w3.org/2000/svg">
<g id="icon-search-linear">
<path id="Vector" d="M14.5652 13.4339L11.4939 10.3626C12.2172 9.40389 12.6512 8.21589 12.6512 6.92522C12.6512 3.76789 10.0819 1.19922 6.92522 1.19922C3.76789 1.19989 1.19922 3.76855 1.19922 6.92589C1.19922 10.0826 3.76789 12.6519 6.92522 12.6519C8.21522 12.6519 9.40389 12.2179 10.3626 11.4946L13.4339 14.5659C13.5899 14.7219 13.7946 14.7999 13.9992 14.7999C14.2039 14.7999 14.4086 14.7219 14.5652 14.5652C14.8772 14.2532 14.8772 13.7466 14.5652 13.4339ZM2.79922 6.92589C2.79922 4.65055 4.64989 2.79989 6.92522 2.79989C9.19989 2.79989 11.0506 4.65055 11.0506 6.92522C11.0506 9.19989 9.19989 11.0506 6.92522 11.0506C4.64989 11.0512 2.79922 9.20055 2.79922 6.92589Z" fill="#191919"/>
</g>
</svg>
