<svg width="20" height="20" viewBox="0 0 20 20" fill="none" xmlns="http://www.w3.org/2000/svg">
<g id="leftsidenavigation/icon">
<path id="Union" fill-rule="evenodd" clip-rule="evenodd" d="M5.89219 3.89403C6.99101 3.1585 8.31162 2.72956 9.73503 2.72956C13.5559 2.72956 16.6533 5.82695 16.6533 9.64778C16.6533 13.4686 13.5559 16.566 9.73503 16.566C8.31162 16.566 6.99101 16.1371 5.89219 15.4015C5.49529 15.1359 4.95818 15.2422 4.69251 15.6391C4.42684 16.036 4.53321 16.5731 4.9301 16.8388C6.30472 17.7589 7.95852 18.2956 9.73503 18.2956C14.5111 18.2956 18.3828 14.4238 18.3828 9.64778C18.3828 4.87174 14.5111 1 9.73503 1C7.95852 1 6.30472 1.53662 4.9301 2.45675C4.53321 2.72242 4.42684 3.25954 4.69251 3.65643C4.95818 4.05332 5.49529 4.1597 5.89219 3.89403ZM1.72956 5.32389C1.25195 5.32389 0.864778 5.71106 0.864778 6.18867C0.864778 6.66627 1.25195 7.05344 1.72956 7.05344H3.45911C3.93671 7.05344 4.32389 6.66627 4.32389 6.18867C4.32389 5.71106 3.93671 5.32389 3.45911 5.32389H1.72956ZM0.864778 8.783C0.387174 8.783 0 9.17017 0 9.64778C0 10.1254 0.387174 10.5126 0.864778 10.5126H3.45911C3.93671 10.5126 4.32389 10.1254 4.32389 9.64778C4.32389 9.17017 3.93671 8.783 3.45911 8.783H0.864778ZM1.72956 12.2421C1.25195 12.2421 0.864778 12.6293 0.864778 13.1069C0.864778 13.5845 1.25195 13.9717 1.72956 13.9717H3.45911C3.93671 13.9717 4.32389 13.5845 4.32389 13.1069C4.32389 12.6293 3.93671 12.2421 3.45911 12.2421H1.72956ZM7.68396 6.88798C7.55275 6.42876 7.07411 6.16284 6.61488 6.29405C6.15566 6.42526 5.88975 6.9039 6.02095 7.36313L6.42664 8.78305H6.10834C5.63073 8.78305 5.24356 9.17022 5.24356 9.64782C5.24356 10.1254 5.63073 10.5126 6.10834 10.5126H6.9208L7.46225 12.4077C7.56832 12.7789 7.90765 13.0349 8.29375 13.0349C8.67986 13.0349 9.01919 12.7789 9.12526 12.4077L9.66671 10.5126H9.8034L10.3448 12.4077C10.4509 12.7789 10.7902 13.0349 11.1763 13.0349C11.5625 13.0349 11.9018 12.7789 12.0079 12.4077L12.5493 10.5126H13.4217C13.8993 10.5126 14.2865 10.1254 14.2865 9.64782C14.2865 9.17022 13.8993 8.78305 13.4217 8.78305H13.0435L13.4491 7.36313C13.5804 6.9039 13.3144 6.42526 12.8552 6.29405C12.396 6.16284 11.9173 6.42876 11.7861 6.88798L11.2447 8.78305H11.108L10.5666 6.88798C10.4605 6.51673 10.1212 6.26078 9.73505 6.26078C9.34894 6.26078 9.00962 6.51673 8.90355 6.88798L8.3621 8.78305H8.22541L7.68396 6.88798Z" fill="#191919"/>
</g>
</svg>
