<svg width="20" height="20" viewBox="0 0 20 20" fill="none" xmlns="http://www.w3.org/2000/svg">
<g id="leftsidenavigation/icon">
<path id="Icon (Stroke)" fill-rule="evenodd" clip-rule="evenodd" d="M9.49879 2.80728L8.67936 4.34688C8.57808 4.58328 8.37283 4.77708 8.09896 4.86202C7.43774 5.0671 6.83535 5.38534 6.30265 5.79769C6.10705 5.9491 5.85621 6.0192 5.60621 5.99233L3.727 5.79034C3.66048 5.87811 3.59566 5.96775 3.53261 6.05926C3.46958 6.15074 3.40903 6.24305 3.35095 6.33611L4.29662 7.92798C4.41862 8.13335 4.45135 8.37638 4.38775 8.60464C4.26399 9.04881 4.19775 9.5164 4.19775 10.0002C4.19775 10.4768 4.26095 10.9405 4.37984 11.3755C4.4419 11.6026 4.40881 11.8439 4.28763 12.0479L3.35055 13.6259C3.40864 13.719 3.4692 13.8113 3.53225 13.9028C3.59534 13.9944 3.66021 14.0841 3.72677 14.1719L5.55901 13.9756C5.81143 13.9485 6.06454 14.0203 6.26077 14.1746C6.79837 14.5974 7.41825 14.9264 8.09327 15.1365C8.33014 15.2103 8.52676 15.3709 8.64001 15.5832L9.49849 17.1927C9.61185 17.1975 9.72591 17.2 9.84063 17.2C9.95517 17.2 10.0691 17.1976 10.1822 17.1927L11.038 15.5848C11.1513 15.3721 11.3482 15.2111 11.5855 15.1373C12.2602 14.9276 12.8799 14.5992 13.4174 14.1771C13.6134 14.0231 13.8661 13.9515 14.1182 13.9783L15.9371 14.1724C16.0037 14.0846 16.0687 13.9948 16.1318 13.9032C16.1949 13.8116 16.2554 13.7193 16.3135 13.6262L15.3832 12.0597C15.241 11.8203 15.2261 11.545 15.3178 11.3052C15.4259 10.8882 15.4835 10.4512 15.4835 10.0002C15.4835 9.51115 15.4158 9.03866 15.2894 8.59017C15.2702 8.52179 15.2597 8.45312 15.2573 8.38527C15.251 8.22384 15.2901 8.0588 15.3796 7.90804L16.3129 6.33646C16.2548 6.24338 16.1943 6.15105 16.1312 6.05954C16.0682 5.96803 16.0033 5.87839 15.9368 5.79062L14.0812 5.99008C13.8311 6.01696 13.5802 5.94679 13.3846 5.79527C12.854 5.38436 12.2502 5.0683 11.5855 4.86213C11.3479 4.78845 11.1507 4.62738 11.0374 4.41444L10.182 2.80728C10.0688 2.80245 9.95494 2.8 9.8404 2.8C9.72586 2.8 9.61197 2.80245 9.49879 2.80728ZM17.1982 8.48881C17.3072 8.97683 17.3645 9.48255 17.3645 10.0002C17.3645 10.5078 17.3094 11.0041 17.2044 11.4834L18.2092 13.1753C18.3657 13.4388 18.3731 13.76 18.2288 14.0299C18.0717 14.3239 17.8962 14.6124 17.7021 14.894C17.5081 15.1756 17.3002 15.4436 17.0797 15.6977C16.8775 15.9307 16.5664 16.0508 16.2519 16.0172L14.2887 15.8077C13.7565 16.1815 13.1707 16.4902 12.5441 16.7211L11.6191 18.459C11.4754 18.7291 11.1993 18.9118 10.8844 18.9451C10.5414 18.9814 10.1931 19 9.84063 19C9.48815 19 9.13985 18.9814 8.79682 18.9451C8.4823 18.9118 8.20635 18.7294 8.06249 18.4597L7.13464 16.7202C6.50748 16.4888 5.92123 16.1795 5.38879 15.8051L3.41258 16.0168C3.09793 16.0505 2.78668 15.9305 2.5844 15.6974C2.36391 15.4433 2.15596 15.1753 1.96193 14.8937C1.7679 14.6121 1.5924 14.3236 1.43522 14.0295C1.29098 13.7597 1.29836 13.4385 1.45485 13.175L2.47079 11.4642C2.36916 10.9898 2.31679 10.4985 2.31679 10.0002C2.31679 9.48987 2.37241 8.99114 2.47843 8.50953L1.45527 6.7872C1.29872 6.52367 1.29131 6.20242 1.43558 5.93254C1.59275 5.6385 1.76826 5.35001 1.96229 5.0684C2.15632 4.7868 2.36427 4.51878 2.58476 4.26469C2.78711 4.03152 3.09851 3.91147 3.41326 3.9453L5.44021 4.16317C5.95914 3.80297 6.52661 3.50465 7.13659 3.27949L8.06188 1.54097C8.20563 1.27089 8.48178 1.08819 8.79659 1.05489C9.13962 1.0186 9.48792 1 9.8404 1C10.1929 1 10.5412 1.0186 10.8842 1.05489C11.199 1.08819 11.4752 1.27089 11.6189 1.54097L12.5432 3.27767C13.1544 3.5021 13.7249 3.79913 14.247 4.16093L16.2506 3.94558C16.5653 3.91175 16.8767 4.0318 17.0791 4.26497C17.2996 4.51906 17.5075 4.78708 17.7015 5.06869C17.8956 5.35029 18.0711 5.63878 18.2283 5.93282C18.3725 6.20266 18.3651 6.52386 18.2086 6.78737L17.1982 8.48881ZM9.84061 8.20015C8.80179 8.20015 7.95966 9.00604 7.95966 10.0002C7.95966 10.9943 8.80179 11.8002 9.84061 11.8002C10.8794 11.8002 11.7216 10.9943 11.7216 10.0002C11.7216 9.00604 10.8794 8.20015 9.84061 8.20015ZM6.0787 10.0002C6.0787 8.01193 7.76296 6.40015 9.84061 6.40015C11.9183 6.40015 13.6025 8.01193 13.6025 10.0002C13.6025 11.9884 11.9183 13.6002 9.84061 13.6002C7.76296 13.6002 6.0787 11.9884 6.0787 10.0002Z" fill="#191919"/>
</g>
</svg>
