<svg width="16" height="16" viewBox="0 0 16 16" fill="none" xmlns="http://www.w3.org/2000/svg">
<g id="icon-question-circle-fill" clip-path="url(#clip0_183_6831)">
<path id="Vector" fill-rule="evenodd" clip-rule="evenodd" d="M10.404 6.82935C10.2126 7.66202 9.6393 8.02868 9.21997 8.29735C8.78597 8.57468 8.63597 8.69068 8.63597 9.08335C8.63597 9.24248 8.57275 9.39509 8.46023 9.50761C8.34771 9.62013 8.1951 9.68335 8.03597 9.68335C7.87684 9.68335 7.72423 9.62013 7.6117 9.50761C7.49918 9.39509 7.43597 9.24248 7.43597 9.08335C7.43597 8.01335 8.0933 7.59335 8.5733 7.28602C8.95463 7.04268 9.15664 6.89935 9.23464 6.56068C9.30197 6.26668 9.24863 6.00668 9.07463 5.78802C8.84663 5.50202 8.4393 5.31668 8.03597 5.31668C7.38397 5.31668 6.8533 5.84802 6.8533 6.50002C6.8533 6.65915 6.79009 6.81176 6.67757 6.92428C6.56504 7.0368 6.41243 7.10002 6.2533 7.10002C6.09417 7.10002 5.94156 7.0368 5.82904 6.92428C5.71652 6.81176 5.6533 6.65915 5.6533 6.50002C5.65401 5.86831 5.90526 5.26268 6.35195 4.816C6.79863 4.36931 7.40426 4.11805 8.03597 4.11735C8.80197 4.11735 9.5593 4.47068 10.0133 5.04068C10.4146 5.54468 10.5533 6.18002 10.404 6.82935M8.04663 11.9887C7.83446 11.9887 7.63098 11.9044 7.48095 11.7544C7.33092 11.6043 7.24664 11.4009 7.24664 11.1887C7.24664 10.9765 7.33092 10.773 7.48095 10.623C7.63098 10.473 7.83446 10.3887 8.04663 10.3887C8.25881 10.3887 8.46229 10.473 8.61232 10.623C8.76235 10.773 8.84663 10.9765 8.84663 11.1887C8.84663 11.4009 8.76235 11.6043 8.61232 11.7544C8.46229 11.9044 8.25881 11.9887 8.04663 11.9887ZM8.0013 0.666016C3.95064 0.666016 0.667969 3.94935 0.667969 7.99935C0.667969 12.05 3.95064 15.3327 8.0013 15.3327C12.0513 15.3327 15.3346 12.05 15.3346 7.99935C15.3346 3.94935 12.0513 0.666016 8.0013 0.666016Z" fill="#E5E5E5"/>
</g>
<defs>
<clipPath id="clip0_183_6831">
<rect width="16" height="16" fill="white"/>
</clipPath>
</defs>
</svg>
