<svg width="16" height="16" viewBox="0 0 16 16" fill="none" xmlns="http://www.w3.org/2000/svg">
<g id="icon-line-three-mono">
<path id="Icon (Stroke)" fill-rule="evenodd" clip-rule="evenodd" d="M6.81188 3.30693C5.86042 3.30693 5.08911 4.07824 5.08911 5.0297C5.08911 5.98116 5.86042 6.75248 6.81188 6.75248C7.76334 6.75248 8.53465 5.98116 8.53465 5.0297C8.53465 4.07824 7.76334 3.30693 6.81188 3.30693ZM3.78218 5.0297C3.78218 3.35644 5.13862 2 6.81188 2C8.48514 2 9.84159 3.35644 9.84159 5.0297C9.84159 6.70296 8.48514 8.05941 6.81188 8.05941C5.13862 8.05941 3.78218 6.70296 3.78218 5.0297ZM3.36774 12.6931C3.67387 11.0696 5.09947 9.84158 6.81188 9.84158C7.16095 9.84158 7.49699 9.89241 7.8136 9.98664C8.1595 10.0896 8.52337 9.89263 8.62632 9.54672C8.72926 9.20082 8.53231 8.83695 8.1864 8.73401C7.75009 8.60416 7.28852 8.53465 6.81188 8.53465C4.15435 8.53465 2 10.689 2 13.3465C2 13.7074 2.29257 14 2.65347 14H8C8.3609 14 8.65347 13.7074 8.65347 13.3465C8.65347 12.9856 8.3609 12.6931 8 12.6931H3.36774ZM11.2673 10.4356C10.808 10.4356 10.4356 10.808 10.4356 11.2673C10.4356 11.7267 10.808 12.099 11.2673 12.099C11.7267 12.099 12.099 11.7267 12.099 11.2673C12.099 10.808 11.7267 10.4356 11.2673 10.4356ZM9.12871 11.2673C9.12871 10.0862 10.0862 9.12871 11.2673 9.12871C12.4485 9.12871 13.4059 10.0862 13.4059 11.2673C13.4059 11.6198 13.3207 11.9524 13.1696 12.2455L13.8086 12.8845C14.0638 13.1397 14.0638 13.5534 13.8086 13.8086C13.5534 14.0638 13.1397 14.0638 12.8845 13.8086L12.2455 13.1696C11.9524 13.3207 11.6198 13.4059 11.2673 13.4059C10.0862 13.4059 9.12871 12.4485 9.12871 11.2673Z" fill="#4C4C4C"/>
</g>
</svg>
