<svg width="1200" height="630" viewBox="0 0 1200 630" fill="none" xmlns="http://www.w3.org/2000/svg">
  <defs>
    <linearGradient id="bg3" x1="140" y1="0" x2="1040" y2="630" gradientUnits="userSpaceOnUse">
      <stop stop-color="#0F172A"/>
      <stop offset="1" stop-color="#1E293B"/>
    </linearGradient>
    <linearGradient id="line" x1="644" y1="150" x2="1090" y2="470" gradientUnits="userSpaceOnUse">
      <stop stop-color="#60A5FA"/>
      <stop offset="1" stop-color="#22D3EE"/>
    </linearGradient>
  </defs>

  <rect width="1200" height="630" rx="36" fill="url(#bg3)"/>
  <rect x="0" y="0" width="1200" height="630" rx="36" fill="url(#bg3)"/>

  <g opacity="0.3">
    <path d="M620 70H1160" stroke="#334155" stroke-width="2"/>
    <path d="M620 150H1160" stroke="#334155" stroke-width="2"/>
    <path d="M620 230H1160" stroke="#334155" stroke-width="2"/>
    <path d="M620 310H1160" stroke="#334155" stroke-width="2"/>
    <path d="M620 390H1160" stroke="#334155" stroke-width="2"/>
    <path d="M620 470H1160" stroke="#334155" stroke-width="2"/>
    <path d="M620 550H1160" stroke="#334155" stroke-width="2"/>
  </g>

  <text x="74" y="106" fill="#93C5FD" font-family="Pretendard, Inter, sans-serif" font-size="20" font-weight="700">BREDY · TRUSTED AUCTION FLOW</text>

  <text x="72" y="214" fill="white" font-family="Pretendard, Inter, sans-serif" font-size="70" font-weight="800" letter-spacing="-1.1">운영이 편한 경매</text>
  <text x="72" y="296" fill="white" font-family="Pretendard, Inter, sans-serif" font-size="70" font-weight="800" letter-spacing="-1.1">참여가 쉬운 경매</text>

  <text x="74" y="354" fill="#94A3B8" font-family="Pretendard, Inter, sans-serif" font-size="24" font-weight="500">카페/밴드/오픈채팅에서 링크 공유만으로 바로 시작</text>

  <rect x="72" y="414" width="300" height="78" rx="20" fill="#FEE500"/>
  <text x="134" y="466" fill="#111827" font-family="Pretendard, Inter, sans-serif" font-size="31" font-weight="800">카카오로 시작</text>

  <g>
    <polyline points="664,452 748,364 824,398 910,282 998,320 1072,224" stroke="url(#line)" stroke-width="10" stroke-linecap="round" stroke-linejoin="round"/>
    <circle cx="664" cy="452" r="14" fill="#38BDF8"/>
    <circle cx="748" cy="364" r="14" fill="#38BDF8"/>
    <circle cx="824" cy="398" r="14" fill="#38BDF8"/>
    <circle cx="910" cy="282" r="14" fill="#38BDF8"/>
    <circle cx="998" cy="320" r="14" fill="#38BDF8"/>
    <circle cx="1072" cy="224" r="14" fill="#38BDF8"/>

    <rect x="648" y="88" width="468" height="96" rx="18" fill="#0B1222" stroke="#334155"/>
    <text x="688" y="144" fill="#E2E8F0" font-family="Pretendard, Inter, sans-serif" font-size="34" font-weight="700">입찰 검증 · 자동 연장 · 신고 처리</text>
  </g>
</svg>
