<svg width="1200" height="630" viewBox="0 0 1200 630" fill="none" xmlns="http://www.w3.org/2000/svg">
  <defs>
    <linearGradient id="bg2" x1="0" y1="0" x2="1200" y2="630" gradientUnits="userSpaceOnUse">
      <stop stop-color="#F8FBFF"/>
      <stop offset="0.56" stop-color="#EAF1FF"/>
      <stop offset="1" stop-color="#DCE8FF"/>
    </linearGradient>
    <linearGradient id="accent" x1="745" y1="86" x2="1120" y2="470" gradientUnits="userSpaceOnUse">
      <stop stop-color="#1A3EA0"/>
      <stop offset="1" stop-color="#2E79FF"/>
    </linearGradient>
  </defs>

  <rect width="1200" height="630" rx="36" fill="url(#bg2)"/>

  <rect x="70" y="74" width="214" height="38" rx="19" fill="#1F56E9" fill-opacity="0.1"/>
  <text x="100" y="100" fill="#1D49B9" font-family="Pretendard, Inter, sans-serif" font-size="18" font-weight="700">BREDY AUCTION TOOL</text>

  <text x="72" y="208" fill="#101828" font-family="Pretendard, Inter, sans-serif" font-size="68" font-weight="800" letter-spacing="-1.2">공유하면 바로 참여되는</text>
  <text x="72" y="290" fill="#101828" font-family="Pretendard, Inter, sans-serif" font-size="68" font-weight="800" letter-spacing="-1.2">링크형 경매</text>
  <text x="74" y="346" fill="#52607A" font-family="Pretendard, Inter, sans-serif" font-size="24" font-weight="500">주먹구구 경매 단점을 입찰 검증과 자동 연장으로 해결합니다.</text>

  <rect x="72" y="408" width="286" height="76" rx="18" fill="#1F56E9"/>
  <text x="138" y="458" fill="white" font-family="Pretendard, Inter, sans-serif" font-size="30" font-weight="700">바로 시작하기</text>

  <rect x="376" y="408" width="230" height="76" rx="18" fill="white" stroke="#D5DDF0"/>
  <text x="430" y="458" fill="#192A53" font-family="Pretendard, Inter, sans-serif" font-size="30" font-weight="700">경매 보기</text>

  <g>
    <rect x="702" y="72" width="430" height="486" rx="34" fill="url(#accent)"/>
    <rect x="742" y="126" width="350" height="78" rx="18" fill="white" fill-opacity="0.16"/>
    <text x="780" y="174" fill="white" font-family="Pretendard, Inter, sans-serif" font-size="34" font-weight="700">신뢰 장치 4단계</text>

    <g font-family="Pretendard, Inter, sans-serif" fill="white" font-size="24" font-weight="600">
      <circle cx="780" cy="262" r="15" fill="#FEE500"/>
      <text x="812" y="270">카카오 계정 기반 참여</text>

      <circle cx="780" cy="326" r="15" fill="#FEE500"/>
      <text x="812" y="334">호가 단위 자동 검증</text>

      <circle cx="780" cy="390" r="15" fill="#FEE500"/>
      <text x="812" y="398">마감 임박 자동 연장</text>

      <circle cx="780" cy="454" r="15" fill="#FEE500"/>
      <text x="812" y="462">신고 처리/제재 상태 공개</text>
    </g>
  </g>
</svg>
