<svg width="1600" height="900" viewBox="0 0 1600 900" fill="none" xmlns="http://www.w3.org/2000/svg">
  <defs>
    <linearGradient id="bannerBg" x1="0" y1="0" x2="1600" y2="900" gradientUnits="userSpaceOnUse">
      <stop stop-color="#091833"/>
      <stop offset="0.55" stop-color="#10284F"/>
      <stop offset="1" stop-color="#173866"/>
    </linearGradient>
    <radialGradient id="bannerGlowA" cx="0" cy="0" r="1" gradientUnits="userSpaceOnUse" gradientTransform="translate(1262 252) rotate(143) scale(662 430)">
      <stop stop-color="#6EC8FF" stop-opacity="0.38"/>
      <stop offset="1" stop-color="#6EC8FF" stop-opacity="0"/>
    </radialGradient>
    <radialGradient id="bannerGlowB" cx="0" cy="0" r="1" gradientUnits="userSpaceOnUse" gradientTransform="translate(320 834) rotate(-26) scale(724 366)">
      <stop stop-color="#FF944B" stop-opacity="0.34"/>
      <stop offset="1" stop-color="#FF944B" stop-opacity="0"/>
    </radialGradient>
    <linearGradient id="flowLine" x1="944" y1="706" x2="1370" y2="388" gradientUnits="userSpaceOnUse">
      <stop stop-color="#7FD4FF"/>
      <stop offset="1" stop-color="#86F6D9"/>
    </linearGradient>
  </defs>

  <rect width="1600" height="900" rx="44" fill="url(#bannerBg)"/>
  <rect width="1600" height="900" rx="44" fill="url(#bannerGlowA)"/>
  <rect width="1600" height="900" rx="44" fill="url(#bannerGlowB)"/>

  <rect x="92" y="88" width="262" height="44" rx="22" fill="#7DD3FC" fill-opacity="0.2"/>
  <text x="126" y="117" fill="#D7F1FF" font-family="Pretendard, Inter, sans-serif" font-size="20" font-weight="700">BREDY SERVICE</text>

  <text x="90" y="286" fill="white" font-family="Pretendard, Inter, sans-serif" font-size="98" font-weight="800" letter-spacing="-1.7">브리딩 커뮤니티와 거래를</text>
  <text x="90" y="398" fill="white" font-family="Pretendard, Inter, sans-serif" font-size="98" font-weight="800" letter-spacing="-1.7">한 번에 연결하세요</text>
  <text x="92" y="468" fill="#D1D9E6" font-family="Pretendard, Inter, sans-serif" font-size="32" font-weight="500">중고거래, 채팅, 경매, 브리디북 기록까지 하나의 플로우</text>

  <rect x="92" y="542" width="344" height="94" rx="20" fill="#FB923C"/>
  <text x="156" y="602" fill="#0A1224" font-family="Pretendard, Inter, sans-serif" font-size="38" font-weight="800">서비스 시작하기</text>

  <rect x="456" y="542" width="270" height="94" rx="20" fill="#F8FAFC" fill-opacity="0.14" stroke="#C8E1FF" stroke-opacity="0.6"/>
  <text x="520" y="602" fill="#E8F2FF" font-family="Pretendard, Inter, sans-serif" font-size="36" font-weight="700">경매 보기</text>

  <g>
    <rect x="890" y="88" width="624" height="724" rx="38" fill="#0E1E3E" fill-opacity="0.9" stroke="#79BFFF" stroke-opacity="0.45"/>

    <rect x="934" y="138" width="536" height="88" rx="20" fill="#F8FAFC" fill-opacity="0.1"/>
    <text x="984" y="194" fill="#E5F4FF" font-family="Pretendard, Inter, sans-serif" font-size="42" font-weight="700">브리딩 신뢰 파이프라인</text>

    <g font-family="Pretendard, Inter, sans-serif" font-size="33" font-weight="600" fill="#F8FAFC">
      <circle cx="970" cy="304" r="18" fill="#FB923C"/>
      <text x="1010" y="314">커뮤니티 탐색</text>

      <circle cx="970" cy="392" r="18" fill="#FB923C"/>
      <text x="1010" y="402">매물 거래 + 채팅</text>

      <circle cx="970" cy="480" r="18" fill="#FB923C"/>
      <text x="1010" y="490">검증형 경매 참여</text>

      <circle cx="970" cy="568" r="18" fill="#FB923C"/>
      <text x="1010" y="578">브리디북 기록 등록</text>

      <circle cx="970" cy="656" r="18" fill="#FB923C"/>
      <text x="1010" y="666">브리더 신뢰도 축적</text>
    </g>

    <polyline points="948,720 1034,636 1108,650 1190,546 1272,566 1346,452 1426,470" stroke="url(#flowLine)" stroke-width="10" stroke-linecap="round" stroke-linejoin="round"/>
    <circle cx="948" cy="720" r="11" fill="#7DD3FC"/>
    <circle cx="1034" cy="636" r="11" fill="#7DD3FC"/>
    <circle cx="1108" cy="650" r="11" fill="#7DD3FC"/>
    <circle cx="1190" cy="546" r="11" fill="#7DD3FC"/>
    <circle cx="1272" cy="566" r="11" fill="#7DD3FC"/>
    <circle cx="1346" cy="452" r="11" fill="#7DD3FC"/>
    <circle cx="1426" cy="470" r="11" fill="#7DD3FC"/>
  </g>
</svg>
